# Blender v2.92.0 OBJ File: ''
# www.blender.org
mtllib Pyramid.mtl
o Cube_Cube.001
v -3.550996 0.423813 3.398759
v 0.000000 3.543747 0.000000
v -3.550996 0.423813 -3.398759
v 3.550996 0.423813 3.398759
v 3.550996 0.423813 -3.398759
vt 0.375000 0.000000
vt 0.625000 0.250000
vt 0.375000 0.250000
vt 0.625000 0.500000
vt 0.375000 0.500000
vt 0.625000 0.750000
vt 0.375000 0.750000
vt 0.625000 1.000000
vt 0.375000 1.000000
vt 0.125000 0.500000
vt 0.125000 0.750000
vn -0.6600 0.7512 0.0000
vn 0.0000 0.7367 -0.6762
vn 0.6600 0.7512 0.0000
vn 0.0000 0.7367 0.6762
vn 0.0000 -1.0000 0.0000
usemtl None
s off
f 1/1/1 2/2/1 3/3/1
f 3/3/2 2/4/2 5/5/2
f 5/5/3 2/6/3 4/7/3
f 4/7/4 2/8/4 1/9/4
f 3/10/5 5/5/5 4/7/5 1/11/5
