# This file uses centimeters as units for non-parametric coordinates.

mtllib CartoonTree2-trunk.mtl
g default
v -1.259200 11.904700 108.429398
v -1.093400 11.904700 109.047997
v -0.890800 9.299800 109.047997
v -1.083700 9.299800 108.328102
v -1.712000 11.904700 107.976501
v -1.610800 9.299800 107.801102
v -2.330700 11.904700 107.810699
v -2.330700 9.299800 107.608200
v -2.949300 11.904700 107.976501
v -3.050600 9.299800 107.801102
v -3.402200 11.904700 108.429398
v -3.577600 9.299800 108.328102
v -3.568000 11.904700 109.047997
v -3.770500 9.299800 109.047997
v -3.402200 11.904700 109.666603
v -3.577600 9.299800 109.767899
v -2.949300 11.904700 110.119499
v -3.050600 9.299800 110.294998
v -2.330700 11.904700 110.285301
v -2.330700 9.299800 110.487900
v -1.712000 11.904700 110.119499
v -1.610800 9.299800 110.294998
v -1.259200 11.904700 109.666603
v -1.083700 9.299800 109.767899
v -1.345700 13.941300 108.479301
v -1.193400 13.941300 109.047997
v -0.413900 7.821600 109.047997
v -0.670700 7.821600 108.089600
v -1.762000 13.941300 108.063103
v -1.372300 7.821600 107.388000
v -2.330700 13.941300 107.910698
v -2.330700 7.821600 107.131203
v -2.899300 13.941300 108.063103
v -3.289100 7.821600 107.388000
v -3.315600 13.941300 108.479301
v -3.990700 7.821600 108.089600
v -3.468000 13.941300 109.047997
v -4.247500 7.821600 109.047997
v -3.315600 13.941300 109.616699
v -3.990700 7.821600 110.006401
v -2.899300 13.941300 110.032898
v -3.289100 7.821600 110.708000
v -2.330700 13.941300 110.185303
v -2.330700 7.821600 110.964798
v -1.762000 13.941300 110.032898
v -1.372300 7.821600 110.708000
v -1.345700 13.941300 109.616699
v -0.670700 7.821600 110.006401
v -0.401600 7.783700 109.047997
v -0.660100 7.783700 108.083504
v -1.366200 7.783700 107.377403
v -2.330700 7.783700 107.119003
v -3.295200 7.783700 107.377403
v -4.001300 7.783700 108.083504
v -4.259700 7.783700 109.047997
v -4.001300 7.783700 110.012497
v -3.295200 7.783700 110.718597
v -2.330700 7.783700 110.977097
v -1.366200 7.783700 110.718597
v -0.660100 7.783700 110.012497
v -1.218100 13.964800 109.047997
v -1.367100 13.964800 108.491699
v -1.774400 13.964800 108.084396
v -2.330700 13.964800 107.935402
v -2.887000 13.964800 108.084396
v -3.294200 13.964800 108.491699
v -3.443300 13.964800 109.047997
v -3.294200 13.964800 109.604301
v -2.887000 13.964800 110.011597
v -2.330700 13.964800 110.160599
v -1.774400 13.964800 110.011597
v -1.367100 13.964800 109.604301
vt 0.833300 0.666700
vt 0.750000 0.666700
vt 0.750000 0.333300
vt 0.833300 0.333300
vt 0.916700 0.666700
vt 0.916700 0.333300
vt 1.000000 0.666700
vt 1.000000 0.333300
vt 0.083300 0.666700
vt 0.000000 0.666700
vt 0.000000 0.333300
vt 0.083300 0.333300
vt 0.166700 0.666700
vt 0.166700 0.333300
vt 0.250000 0.666700
vt 0.250000 0.333300
vt 0.333300 0.666700
vt 0.333300 0.333300
vt 0.416700 0.666700
vt 0.416700 0.333300
vt 0.500000 0.666700
vt 0.500000 0.333300
vt 0.583300 0.666700
vt 0.583300 0.333300
vt 0.666700 0.666700
vt 0.666700 0.333300
vt 0.833300 0.996000
vt 0.750000 0.996000
vt 0.750000 0.008300
vt 0.833300 0.008300
vt 0.916700 0.996000
vt 0.916700 0.008300
vt 1.000000 0.996000
vt 1.000000 0.008300
vt 0.083300 0.996000
vt 0.000000 0.996000
vt 0.000000 0.008300
vt 0.083300 0.008300
vt 0.166700 0.996000
vt 0.166700 0.008300
vt 0.250000 0.996000
vt 0.250000 0.008300
vt 0.333300 0.996000
vt 0.333300 0.008300
vt 0.416700 0.996000
vt 0.416700 0.008300
vt 0.500000 0.996000
vt 0.500000 0.008300
vt 0.583300 0.996000
vt 0.583300 0.008300
vt 0.666700 0.996000
vt 0.666700 0.008300
vt 0.750000 0.000000
vt 0.833300 0.000000
vt 0.916700 0.000000
vt 1.000000 0.000000
vt 0.000000 0.000000
vt 0.083300 0.000000
vt 0.166700 0.000000
vt 0.250000 0.000000
vt 0.333300 0.000000
vt 0.416700 0.000000
vt 0.500000 0.000000
vt 0.583300 0.000000
vt 0.666700 0.000000
vt 0.744800 0.989600
vt 0.826400 0.989600
vt 0.908000 0.989600
vt 0.989600 0.989600
vt 0.010400 0.989600
vt 0.092000 0.989600
vt 0.173600 0.989600
vt 0.255200 0.989600
vt 0.336800 0.989600
vt 0.418400 0.989600
vt 0.500000 0.989600
vt 0.581600 0.989600
vt 0.663200 0.989600
vn 0.963192 0.074932 -0.258160
vn 0.963196 0.074929 -0.258148
vn 0.963207 0.074918 -0.258107
vn 0.963210 0.074915 -0.258099
vn 0.498991 0.063399 -0.864285
vn 0.864285 0.063399 -0.498991
vn 0.490184 0.197394 -0.848973
vn 0.848973 0.197394 -0.490184
vn 0.000000 0.063399 -0.997988
vn 0.498991 0.063399 -0.864285
vn -0.000000 0.197404 -0.980322
vn 0.490184 0.197394 -0.848973
vn -0.498991 0.063399 -0.864285
vn 0.000000 0.063399 -0.997988
vn -0.490184 0.197394 -0.848973
vn -0.000000 0.197404 -0.980322
vn -0.864285 0.063399 -0.498991
vn -0.498991 0.063399 -0.864285
vn -0.848973 0.197394 -0.490184
vn -0.490184 0.197394 -0.848973
vn -0.997988 0.063399 -0.000000
vn -0.864285 0.063399 -0.498991
vn -0.980322 0.197404 -0.000000
vn -0.848973 0.197394 -0.490184
vn -0.864285 0.063399 0.498991
vn -0.997988 0.063399 -0.000000
vn -0.848973 0.197394 0.490184
vn -0.980322 0.197404 -0.000000
vn -0.498991 0.063399 0.864285
vn -0.864285 0.063399 0.498991
vn -0.490184 0.197394 0.848973
vn -0.848973 0.197394 0.490184
vn 0.000000 0.063399 0.997988
vn -0.498991 0.063399 0.864285
vn 0.000000 0.197404 0.980322
vn -0.490184 0.197394 0.848973
vn 0.498991 0.063399 0.864285
vn 0.000000 0.063399 0.997988
vn 0.490184 0.197394 0.848973
vn 0.000000 0.197404 0.980322
vn 0.864285 0.063399 0.498991
vn 0.498991 0.063399 0.864285
vn 0.848973 0.197394 0.490184
vn 0.490184 0.197394 0.848973
vn 0.997988 0.063399 0.000000
vn 0.864285 0.063399 0.498991
vn 0.980322 0.197404 0.000000
vn 0.848973 0.197394 0.490184
vn 0.864989 0.048999 -0.499393
vn 0.998799 0.049000 0.000000
vn 0.864285 0.063399 -0.498991
vn 0.997988 0.063399 0.000000
vn 0.951679 0.307093 0.000000
vn 0.824199 0.307100 -0.475800
vn 0.980322 0.197404 0.000000
vn 0.848973 0.197394 -0.490184
vn 0.499393 0.048999 -0.864989
vn 0.864989 0.048999 -0.499393
vn 0.498991 0.063399 -0.864285
vn 0.864285 0.063399 -0.498991
vn 0.824199 0.307100 -0.475800
vn 0.475800 0.307100 -0.824199
vn 0.848973 0.197394 -0.490184
vn 0.490184 0.197394 -0.848973
vn -0.000000 0.049000 -0.998799
vn 0.499393 0.048999 -0.864989
vn 0.000000 0.063399 -0.997988
vn 0.498991 0.063399 -0.864285
vn 0.475800 0.307100 -0.824199
vn -0.000000 0.307093 -0.951679
vn 0.490184 0.197394 -0.848973
vn -0.000000 0.197404 -0.980322
vn -0.499393 0.048999 -0.864989
vn -0.000000 0.049000 -0.998799
vn -0.498991 0.063399 -0.864285
vn 0.000000 0.063399 -0.997988
vn -0.000000 0.307093 -0.951679
vn -0.475800 0.307100 -0.824199
vn -0.000000 0.197404 -0.980322
vn -0.490184 0.197394 -0.848973
vn -0.864989 0.048999 -0.499393
vn -0.499393 0.048999 -0.864989
vn -0.864285 0.063399 -0.498991
vn -0.498991 0.063399 -0.864285
vn -0.475800 0.307100 -0.824199
vn -0.824199 0.307100 -0.475800
vn -0.490184 0.197394 -0.848973
vn -0.848973 0.197394 -0.490184
vn -0.998799 0.049000 -0.000000
vn -0.864989 0.048999 -0.499393
vn -0.997988 0.063399 -0.000000
vn -0.864285 0.063399 -0.498991
vn -0.824199 0.307100 -0.475800
vn -0.951679 0.307093 -0.000000
vn -0.848973 0.197394 -0.490184
vn -0.980322 0.197404 -0.000000
vn -0.864989 0.048999 0.499393
vn -0.998799 0.049000 -0.000000
vn -0.864285 0.063399 0.498991
vn -0.997988 0.063399 -0.000000
vn -0.951679 0.307093 -0.000000
vn -0.824199 0.307100 0.475800
vn -0.980322 0.197404 -0.000000
vn -0.848973 0.197394 0.490184
vn -0.499393 0.048999 0.864989
vn -0.864989 0.048999 0.499393
vn -0.498991 0.063399 0.864285
vn -0.864285 0.063399 0.498991
vn -0.824199 0.307100 0.475800
vn -0.475800 0.307100 0.824199
vn -0.848973 0.197394 0.490184
vn -0.490184 0.197394 0.848973
vn 0.000000 0.049000 0.998799
vn -0.499393 0.048999 0.864989
vn 0.000000 0.063399 0.997988
vn -0.498991 0.063399 0.864285
vn -0.475800 0.307100 0.824199
vn 0.000000 0.307093 0.951679
vn -0.490184 0.197394 0.848973
vn 0.000000 0.197404 0.980322
vn 0.499393 0.048999 0.864989
vn 0.000000 0.049000 0.998799
vn 0.498991 0.063399 0.864285
vn 0.000000 0.063399 0.997988
vn 0.000000 0.307093 0.951679
vn 0.475800 0.307100 0.824199
vn 0.000000 0.197404 0.980322
vn 0.490184 0.197394 0.848973
vn 0.864989 0.048999 0.499393
vn 0.499393 0.048999 0.864989
vn 0.864285 0.063399 0.498991
vn 0.498991 0.063399 0.864285
vn 0.475800 0.307100 0.824199
vn 0.824199 0.307100 0.475800
vn 0.490184 0.197394 0.848973
vn 0.848973 0.197394 0.490184
vn 0.998799 0.049000 0.000000
vn 0.864989 0.048999 0.499393
vn 0.997988 0.063399 0.000000
vn 0.864285 0.063399 0.498991
vn 0.824199 0.307100 0.475800
vn 0.951679 0.307093 0.000000
vn 0.848973 0.197394 0.490184
vn 0.980322 0.197404 0.000000
vn 0.951679 0.307093 0.000000
vn 0.824199 0.307100 -0.475800
vn 0.951679 0.307093 0.000000
vn 0.824199 0.307100 -0.475800
vn 0.824199 0.307100 -0.475800
vn 0.475800 0.307100 -0.824199
vn 0.824199 0.307100 -0.475800
vn 0.475800 0.307100 -0.824199
vn 0.475800 0.307100 -0.824199
vn -0.000000 0.307093 -0.951679
vn 0.475800 0.307100 -0.824199
vn -0.000000 0.307093 -0.951679
vn -0.000000 0.307093 -0.951679
vn -0.475800 0.307100 -0.824199
vn -0.000000 0.307093 -0.951679
vn -0.475800 0.307100 -0.824199
vn -0.475800 0.307100 -0.824199
vn -0.824199 0.307100 -0.475800
vn -0.475800 0.307100 -0.824199
vn -0.824199 0.307100 -0.475800
vn -0.824199 0.307100 -0.475800
vn -0.951679 0.307093 -0.000000
vn -0.824199 0.307100 -0.475800
vn -0.951679 0.307093 -0.000000
vn -0.951679 0.307093 -0.000000
vn -0.824199 0.307100 0.475800
vn -0.951679 0.307093 -0.000000
vn -0.824199 0.307100 0.475800
vn -0.824199 0.307100 0.475800
vn -0.475800 0.307100 0.824199
vn -0.824199 0.307100 0.475800
vn -0.475800 0.307100 0.824199
vn -0.475800 0.307100 0.824199
vn 0.000000 0.307093 0.951679
vn -0.475800 0.307100 0.824199
vn 0.000000 0.307093 0.951679
vn 0.000000 0.307093 0.951679
vn 0.475800 0.307100 0.824199
vn 0.000000 0.307093 0.951679
vn 0.475800 0.307100 0.824199
vn 0.475800 0.307100 0.824199
vn 0.824199 0.307100 0.475800
vn 0.475800 0.307100 0.824199
vn 0.824199 0.307100 0.475800
vn 0.824199 0.307100 0.475800
vn 0.951679 0.307093 0.000000
vn 0.824199 0.307100 0.475800
vn 0.951679 0.307093 0.000000
vn 0.678770 0.711468 -0.181892
vn 0.678770 0.711468 -0.181892
vn 0.678770 0.711468 -0.181892
vn 0.678770 0.711468 -0.181892
vn 0.496887 0.711482 -0.496887
vn 0.496887 0.711482 -0.496887
vn 0.496887 0.711482 -0.496887
vn 0.496887 0.711482 -0.496887
vn 0.181892 0.711468 -0.678770
vn 0.181892 0.711468 -0.678770
vn 0.181892 0.711468 -0.678770
vn 0.181892 0.711468 -0.678770
vn -0.181892 0.711468 -0.678770
vn -0.181892 0.711468 -0.678770
vn -0.181892 0.711468 -0.678770
vn -0.181892 0.711468 -0.678770
vn -0.496887 0.711482 -0.496887
vn -0.496887 0.711482 -0.496887
vn -0.496887 0.711482 -0.496887
vn -0.496887 0.711482 -0.496887
vn -0.678770 0.711468 -0.181892
vn -0.678770 0.711468 -0.181892
vn -0.678770 0.711468 -0.181892
vn -0.678770 0.711468 -0.181892
vn -0.678770 0.711468 0.181892
vn -0.678770 0.711468 0.181892
vn -0.678770 0.711468 0.181892
vn -0.678770 0.711468 0.181892
vn -0.496887 0.711482 0.496887
vn -0.496887 0.711482 0.496887
vn -0.496887 0.711482 0.496887
vn -0.496887 0.711482 0.496887
vn -0.181892 0.711468 0.678770
vn -0.181892 0.711468 0.678770
vn -0.181892 0.711468 0.678770
vn -0.181892 0.711468 0.678770
vn 0.181892 0.711468 0.678770
vn 0.181892 0.711468 0.678770
vn 0.181892 0.711468 0.678770
vn 0.181892 0.711468 0.678770
vn 0.496887 0.711482 0.496887
vn 0.496887 0.711482 0.496887
vn 0.496887 0.711482 0.496887
vn 0.496887 0.711482 0.496887
vn 0.678770 0.711468 0.181892
vn 0.678770 0.711468 0.181892
vn 0.678770 0.711468 0.181892
vn 0.678770 0.711468 0.181892
s 1
g polySurface8 Cartoon_trees:Cartoon_tree2
usemtl initialShadingGroup
f 1/1/1 2/2/2 4/4/3
f 4/4/3 2/2/2 3/3/4
s 2
f 5/5/5 1/1/6 6/6/7
f 6/6/7 1/1/6 4/4/8
s 3
f 7/7/9 5/5/10 8/8/11
f 8/8/11 5/5/10 6/6/12
s 4
f 9/9/13 7/10/14 10/12/15
f 10/12/15 7/10/14 8/11/16
s 5
f 11/13/17 9/9/18 12/14/19
f 12/14/19 9/9/18 10/12/20
s 6
f 13/15/21 11/13/22 14/16/23
f 14/16/23 11/13/22 12/14/24
s 7
f 15/17/25 13/15/26 16/18/27
f 16/18/27 13/15/26 14/16/28
s 8
f 17/19/29 15/17/30 18/20/31
f 18/20/31 15/17/30 16/18/32
s 9
f 19/21/33 17/19/34 20/22/35
f 20/22/35 17/19/34 18/20/36
s 10
f 21/23/37 19/21/38 22/24/39
f 22/24/39 19/21/38 20/22/40
s 11
f 23/25/41 21/23/42 24/26/43
f 24/26/43 21/23/42 22/24/44
s 12
f 2/2/45 23/25/46 3/3/47
f 3/3/47 23/25/46 24/26/48
s 13
f 25/27/49 26/28/50 1/1/51
f 1/1/51 26/28/50 2/2/52
s 14
f 27/29/53 28/30/54 3/3/55
f 3/3/55 28/30/54 4/4/56
s 15
f 29/31/57 25/27/58 5/5/59
f 5/5/59 25/27/58 1/1/60
s 16
f 28/30/61 30/32/62 4/4/63
f 4/4/63 30/32/62 6/6/64
s 17
f 31/33/65 29/31/66 7/7/67
f 7/7/67 29/31/66 5/5/68
s 18
f 30/32/69 32/34/70 6/6/71
f 6/6/71 32/34/70 8/8/72
s 19
f 33/35/73 31/36/74 9/9/75
f 9/9/75 31/36/74 7/10/76
s 20
f 32/37/77 34/38/78 8/11/79
f 8/11/79 34/38/78 10/12/80
s 21
f 35/39/81 33/35/82 11/13/83
f 11/13/83 33/35/82 9/9/84
s 22
f 34/38/85 36/40/86 10/12/87
f 10/12/87 36/40/86 12/14/88
s 23
f 37/41/89 35/39/90 13/15/91
f 13/15/91 35/39/90 11/13/92
s 24
f 36/40/93 38/42/94 12/14/95
f 12/14/95 38/42/94 14/16/96
s 25
f 39/43/97 37/41/98 15/17/99
f 15/17/99 37/41/98 13/15/100
s 26
f 38/42/101 40/44/102 14/16/103
f 14/16/103 40/44/102 16/18/104
s 27
f 41/45/105 39/43/106 17/19/107
f 17/19/107 39/43/106 15/17/108
s 28
f 40/44/109 42/46/110 16/18/111
f 16/18/111 42/46/110 18/20/112
s 29
f 43/47/113 41/45/114 19/21/115
f 19/21/115 41/45/114 17/19/116
s 30
f 42/46/117 44/48/118 18/20/119
f 18/20/119 44/48/118 20/22/120
s 31
f 45/49/121 43/47/122 21/23/123
f 21/23/123 43/47/122 19/21/124
s 32
f 44/48/125 46/50/126 20/22/127
f 20/22/127 46/50/126 22/24/128
s 33
f 47/51/129 45/49/130 23/25/131
f 23/25/131 45/49/130 21/23/132
s 34
f 46/50/133 48/52/134 22/24/135
f 22/24/135 48/52/134 24/26/136
s 35
f 26/28/137 47/51/138 2/2/139
f 2/2/139 47/51/138 23/25/140
s 36
f 48/52/141 27/29/142 24/26/143
f 24/26/143 27/29/142 3/3/144
s 37
f 49/53/145 50/54/146 27/29/147
f 27/29/147 50/54/146 28/30/148
s 38
f 50/54/149 51/55/150 28/30/151
f 28/30/151 51/55/150 30/32/152
s 39
f 51/55/153 52/56/154 30/32/155
f 30/32/155 52/56/154 32/34/156
s 40
f 52/57/157 53/58/158 32/37/159
f 32/37/159 53/58/158 34/38/160
s 41
f 53/58/161 54/59/162 34/38/163
f 34/38/163 54/59/162 36/40/164
s 42
f 54/59/165 55/60/166 36/40/167
f 36/40/167 55/60/166 38/42/168
s 43
f 55/60/169 56/61/170 38/42/171
f 38/42/171 56/61/170 40/44/172
s 44
f 56/61/173 57/62/174 40/44/175
f 40/44/175 57/62/174 42/46/176
s 45
f 57/62/177 58/63/178 42/46/179
f 42/46/179 58/63/178 44/48/180
s 46
f 58/63/181 59/64/182 44/48/183
f 44/48/183 59/64/182 46/50/184
s 47
f 59/64/185 60/65/186 46/50/187
f 46/50/187 60/65/186 48/52/188
s 48
f 60/65/189 49/53/190 48/52/191
f 48/52/191 49/53/190 27/29/192
s 49
f 61/66/193 26/28/194 62/67/195
f 62/67/195 26/28/194 25/27/196
s 50
f 62/67/197 25/27/198 63/68/199
f 63/68/199 25/27/198 29/31/200
s 51
f 63/68/201 29/31/202 64/69/203
f 64/69/203 29/31/202 31/33/204
s 52
f 64/70/205 31/36/206 65/71/207
f 65/71/207 31/36/206 33/35/208
s 53
f 65/71/209 33/35/210 66/72/211
f 66/72/211 33/35/210 35/39/212
s 54
f 66/72/213 35/39/214 67/73/215
f 67/73/215 35/39/214 37/41/216
s 55
f 67/73/217 37/41/218 68/74/219
f 68/74/219 37/41/218 39/43/220
s 56
f 68/74/221 39/43/222 69/75/223
f 69/75/223 39/43/222 41/45/224
s 57
f 69/75/225 41/45/226 70/76/227
f 70/76/227 41/45/226 43/47/228
s 58
f 70/76/229 43/47/230 71/77/231
f 71/77/231 43/47/230 45/49/232
s 59
f 71/77/233 45/49/234 72/78/235
f 72/78/235 45/49/234 47/51/236
s 60
f 72/78/237 47/51/238 61/66/239
f 61/66/239 47/51/238 26/28/240
