# box20x20.obj created by IVCON.
# Original data in box10x10.obj.

g IVCON

v -10.000000 0.000000 10.000000 1.000000
v 10.000000 0.000000 10.000000 1.000000
v -10.000000 10.000000 10.000000 1.000000
v 10.000000 10.000000 10.000000 1.000000
v -10.000000 10.000000 -10.000000 1.000000
v 10.000000 10.000000 -10.000000 1.000000
v -10.000000 0.000000 -10.000000 1.000000
v 10.000000 0.000000 -10.000000 1.000000

vn 0.000000 0.000000 1.000000
vn 0.000000 0.000000 1.000000
vn 0.000000 0.000000 1.000000
vn 0.000000 -0.000000 1.000000
vn 0.000000 0.000000 1.000000
vn -0.000000 0.000000 1.000000
vn -0.000000 1.000000 0.000000
vn 0.000000 1.000000 0.000000
vn 0.000000 1.000000 0.000000
vn 0.000000 1.000000 0.000000
vn 0.000000 1.000000 -0.000000
vn 0.000000 1.000000 0.000000
vn 0.000000 0.000000 -1.000000
vn -0.000000 0.000000 -1.000000
vn 0.000000 0.000000 -1.000000
vn 0.000000 -0.000000 -1.000000
vn 0.000000 0.000000 -1.000000
vn 0.000000 0.000000 -1.000000
vn 0.000000 -1.000000 0.000000
vn 0.000000 -1.000000 0.000000
vn 0.000000 -1.000000 0.000000
vn 0.000000 -1.000000 0.000000
vn -0.000000 -1.000000 -0.000000
vn 0.000000 -1.000000 0.000000
vn 1.000000 -0.000000 0.000000
vn 1.000000 0.000000 0.000000
vn 1.000000 0.000000 0.000000
vn 1.000000 0.000000 0.000000
vn 1.000000 0.000000 -0.000000
vn 1.000000 0.000000 0.000000
vn -1.000000 0.000000 0.000000
vn -1.000000 0.000000 0.000000
vn -1.000000 0.000000 0.000000
vn -1.000000 0.000000 0.000000
vn -1.000000 -0.000000 -0.000000
vn -1.000000 0.000000 0.000000

f 1//1 2//2 3//3
f 2//4 4//5 3//6
f 3//7 4//8 5//9
f 4//10 6//11 5//12
f 5//13 6//14 7//15
f 6//16 8//17 7//18
f 7//19 8//20 1//21
f 8//22 2//23 1//24
f 2//25 8//26 4//27
f 8//28 6//29 4//30
f 7//31 1//32 5//33
f 1//34 3//35 5//36

