# stone2_L-scaled.obj created by IVCON.
# Original data in stone2_L.obj.

g IVCON

v -14.625000 2.019231 20.625000 1.000000
v -13.166666 0.630342 19.166666 1.000000
v -9.000000 2.019231 22.500000 1.000000
v -9.000000 0.144231 20.625000 1.000000
v -14.625000 3.894231 7.500000 1.000000
v -9.000000 4.519231 7.500000 1.000000
v -14.625000 3.894231 0.000000 1.000000
v -9.000000 4.519231 0.000000 1.000000
v -14.625000 2.019231 -5.625000 1.000000
v -13.166666 3.408120 -4.166667 1.000000
v -9.000000 2.019231 -7.500000 1.000000
v -9.000000 3.894231 -5.625000 1.000000
v -14.625000 0.144231 0.000000 1.000000
v -13.166666 0.630342 -4.166667 1.000000
v -9.000000 -0.480769 0.000000 1.000000
v -9.000000 0.144231 -5.625000 1.000000
v -0.300000 -0.080769 7.500000 1.000000
v -3.375000 0.144231 0.000000 1.000000
v 2.250000 2.019231 5.625000 1.000000
v -1.500000 2.019231 0.000000 1.000000
v -16.500000 2.019231 0.000000 1.000000
v -14.625000 0.144231 15.000000 1.000000
v -14.625000 0.144231 7.500000 1.000000
v -9.000000 -0.480769 15.000000 1.000000
v -9.000000 -0.480769 7.500000 1.000000
v 24.750000 0.144231 15.000000 1.000000
v 21.833334 0.630342 10.833333 1.000000
v 28.500000 2.019231 15.000000 1.000000
v 24.750000 2.019231 9.375000 1.000000
v -9.000000 4.519231 15.000000 1.000000
v 0.375000 4.519231 15.000000 1.000000
v -0.300000 4.119231 7.500000 1.000000
v -14.625000 3.894231 15.000000 1.000000
v -16.500000 2.019231 15.000000 1.000000
v -16.500000 2.019231 7.500000 1.000000
v 13.500000 0.144231 9.375000 1.000000
v 13.500000 2.019231 7.500000 1.000000
v 13.500000 4.519231 15.000000 1.000000
v 13.500000 3.894231 9.375000 1.000000
v 13.500000 3.894231 20.625000 1.000000
v 0.375000 3.894231 20.625000 1.000000
v 13.500000 2.019231 22.500000 1.000000
v 0.375000 2.019231 22.500000 1.000000
v 0.375000 0.144231 20.625000 1.000000
v 0.375000 -0.480769 15.000000 1.000000
v 13.500000 0.144231 20.625000 1.000000
v 13.500000 -0.480769 15.000000 1.000000
v -9.000000 3.894231 20.625000 1.000000
v -13.166666 3.408120 19.166666 1.000000
v -3.375000 3.894231 0.000000 1.000000
v -4.833333 3.408120 -4.166667 1.000000
v -3.375000 2.019231 -5.625000 1.000000
v -4.833333 0.630342 -4.166667 1.000000
v 21.833334 3.408120 10.833333 1.000000
v 24.750000 3.894231 15.000000 1.000000
v 21.833334 3.408120 19.166666 1.000000
v 24.750000 2.019231 20.625000 1.000000
v 21.833334 0.630342 19.166666 1.000000

vn -0.190209 -0.798878 0.570627
vn -0.190209 -0.798878 0.570627
vn -0.190209 -0.798878 0.570627
vn -0.313363 -0.671492 0.671492
vn -0.313363 -0.671492 0.671492
vn -0.313363 -0.671492 0.671492
vn -0.110431 0.993884 0.000000
vn -0.110431 0.993884 0.000000
vn -0.110431 0.993884 0.000000
vn -0.110431 0.993884 0.000000
vn -0.110431 0.993884 0.000000
vn -0.110431 0.993884 0.000000
vn -0.190209 0.798878 -0.570627
vn -0.190209 0.798878 -0.570627
vn -0.190209 0.798878 -0.570627
vn -0.313363 0.671492 -0.671492
vn -0.313363 0.671492 -0.671492
vn -0.313363 0.671492 -0.671492
vn -0.109135 -0.982214 -0.152789
vn -0.109135 -0.982214 -0.152789
vn -0.109135 -0.982214 -0.152789
vn -0.152789 -0.982214 -0.109135
vn -0.152789 -0.982214 -0.109135
vn -0.152789 -0.982214 -0.109135
vn 0.509825 -0.827881 -0.233865
vn 0.509825 -0.827881 -0.233865
vn 0.509825 -0.827881 -0.233865
vn 0.639602 -0.639602 -0.426401
vn 0.639602 -0.639602 -0.426401
vn 0.639602 -0.639602 -0.426401
vn -0.570627 -0.798878 -0.190209
vn -0.570627 -0.798878 -0.190209
vn -0.570627 -0.798878 -0.190209
vn -0.671492 -0.671492 -0.313363
vn -0.671492 -0.671492 -0.313363
vn -0.671492 -0.671492 -0.313363
vn -0.110432 -0.993884 -0.000000
vn -0.110432 -0.993884 0.000000
vn -0.110432 -0.993884 0.000000
vn -0.110432 -0.993884 0.000000
vn -0.110432 -0.993884 0.000000
vn -0.110432 -0.993884 -0.000000
vn 0.412705 -0.825410 -0.385191
vn 0.412705 -0.825410 -0.385191
vn 0.412705 -0.825410 -0.385191
vn 0.328188 -0.918925 -0.218792
vn 0.328188 -0.918925 -0.218792
vn 0.328188 -0.918925 -0.218792
vn -0.000000 1.000000 0.000000
vn 0.000000 1.000000 0.000000
vn 0.000000 1.000000 0.000000
vn 0.045853 0.997303 -0.057316
vn 0.045853 0.997303 -0.057316
vn 0.045853 0.997303 -0.057316
vn -0.707107 0.707107 0.000000
vn -0.707107 0.707107 0.000000
vn -0.707107 0.707107 0.000000
vn -0.707107 0.707107 0.000000
vn -0.707107 0.707107 0.000000
vn -0.707107 0.707107 0.000000
vn 0.103744 -0.729554 -0.676009
vn 0.103744 -0.729554 -0.676009
vn 0.103744 -0.729554 -0.676009
vn 0.117041 -0.702247 -0.702247
vn 0.117041 -0.702247 -0.702247
vn 0.117041 -0.702247 -0.702247
vn 0.000000 0.998581 -0.053258
vn 0.000000 0.998581 -0.053258
vn 0.000000 0.998581 -0.053258
vn 0.031194 0.993400 -0.110378
vn 0.031194 0.993400 -0.110378
vn 0.031194 0.993400 -0.110378
vn 0.000000 0.707107 0.707107
vn -0.000000 0.707107 0.707107
vn 0.000000 0.707107 0.707107
vn 0.000000 0.707107 0.707107
vn -0.000000 0.707107 0.707107
vn 0.000000 0.707107 0.707107
vn 0.000000 -0.993884 0.110432
vn 0.000000 -0.993884 0.110432
vn 0.000000 -0.993884 0.110432
vn 0.000000 -0.993884 0.110432
vn 0.000000 -0.993884 0.110432
vn 0.000000 -0.993884 0.110432
vn 0.000000 -0.707107 0.707107
vn 0.000000 -0.707107 0.707107
vn 0.000000 -0.707107 0.707107
vn 0.000000 -0.707107 0.707107
vn 0.000000 -0.707107 0.707107
vn 0.000000 -0.707107 0.707107
vn 0.000000 0.707107 0.707107
vn 0.000000 0.707107 0.707107
vn -0.000000 0.707107 0.707107
vn 0.000000 0.707107 0.707107
vn -0.000000 0.707107 0.707107
vn 0.000000 0.707107 0.707107
vn -0.313363 0.671492 0.671492
vn -0.313363 0.671492 0.671492
vn -0.313363 0.671492 0.671492
vn -0.190209 0.798878 0.570627
vn -0.190209 0.798878 0.570627
vn -0.190209 0.798878 0.570627
vn 0.045928 0.998945 0.000000
vn 0.045928 0.998945 0.000000
vn 0.045928 0.998945 -0.000000
vn 0.110121 0.991093 -0.074883
vn 0.110121 0.991093 -0.074883
vn 0.110121 0.991093 -0.074883
vn 0.109764 0.987878 -0.109764
vn 0.109764 0.987878 -0.109764
vn 0.109764 0.987878 -0.109764
vn 0.173970 0.969262 -0.173970
vn 0.173970 0.969262 -0.173970
vn 0.173970 0.969262 -0.173970
vn -0.152789 0.982214 -0.109135
vn -0.152789 0.982214 -0.109135
vn -0.152789 0.982214 -0.109135
vn -0.109135 0.982214 -0.152789
vn -0.109135 0.982214 -0.152789
vn -0.109135 0.982214 -0.152789
vn 0.313363 0.671492 -0.671492
vn 0.313363 0.671492 -0.671492
vn 0.313363 0.671492 -0.671492
vn 0.190209 0.798878 -0.570627
vn 0.190209 0.798878 -0.570627
vn 0.190209 0.798878 -0.570627
vn 0.190209 -0.798878 -0.570627
vn 0.190209 -0.798878 -0.570627
vn 0.190209 -0.798878 -0.570627
vn 0.313363 -0.671492 -0.671492
vn 0.313363 -0.671492 -0.671492
vn 0.313363 -0.671492 -0.671492
vn -0.313363 -0.671492 -0.671492
vn -0.313363 -0.671492 -0.671492
vn -0.313363 -0.671492 -0.671492
vn -0.190209 -0.798878 -0.570627
vn -0.190209 -0.798878 -0.570627
vn -0.190209 -0.798878 -0.570627
vn 0.109764 -0.987878 -0.109764
vn 0.109764 -0.987878 -0.109764
vn 0.109764 -0.987878 -0.109764
vn 0.173970 -0.969262 -0.173970
vn 0.173970 -0.969262 -0.173970
vn 0.173970 -0.969262 -0.173970
vn 0.045928 -0.998945 0.000000
vn 0.045928 -0.998945 0.000000
vn 0.045928 -0.998945 0.000000
vn 0.110121 -0.991093 -0.074883
vn 0.110121 -0.991093 -0.074883
vn 0.110121 -0.991093 -0.074883
vn -0.110432 -0.993884 -0.000000
vn -0.110432 -0.993884 0.000000
vn -0.110432 -0.993884 0.000000
vn -0.110432 -0.993884 -0.000000
vn -0.110432 -0.993884 0.000000
vn -0.110432 -0.993884 0.000000
vn 0.671492 -0.671492 -0.313363
vn 0.671492 -0.671492 -0.313363
vn 0.671492 -0.671492 -0.313363
vn 0.570627 -0.798878 -0.190209
vn 0.570627 -0.798878 -0.190209
vn 0.570627 -0.798878 -0.190209
vn 0.570627 0.798878 -0.190209
vn 0.570627 0.798878 -0.190209
vn 0.570627 0.798878 -0.190209
vn 0.671492 0.671492 -0.313363
vn 0.671492 0.671492 -0.313363
vn 0.671492 0.671492 -0.313363
vn 0.509825 0.827881 -0.233865
vn 0.509825 0.827881 -0.233865
vn 0.509825 0.827881 -0.233865
vn 0.639602 0.639602 -0.426401
vn 0.639602 0.639602 -0.426401
vn 0.639602 0.639602 -0.426401
vn -0.707107 -0.707107 0.000000
vn -0.707107 -0.707107 -0.000000
vn -0.707107 -0.707107 0.000000
vn -0.707107 -0.707107 0.000000
vn -0.707107 -0.707107 -0.000000
vn -0.707107 -0.707107 0.000000
vn -0.707107 0.707107 0.000000
vn -0.707107 0.707107 0.000000
vn -0.707107 0.707107 0.000000
vn -0.707107 0.707107 0.000000
vn -0.707107 0.707107 0.000000
vn -0.707107 0.707107 0.000000
vn -0.671492 0.671492 -0.313363
vn -0.671492 0.671492 -0.313363
vn -0.671492 0.671492 -0.313363
vn -0.570627 0.798878 -0.190209
vn -0.570627 0.798878 -0.190209
vn -0.570627 0.798878 -0.190209
vn 0.000000 -1.000000 0.000000
vn 0.000000 -1.000000 0.000000
vn -0.000000 -1.000000 0.000000
vn 0.045853 -0.997303 -0.057316
vn 0.045853 -0.997303 -0.057316
vn 0.045853 -0.997303 -0.057316
vn 0.000000 -0.993884 0.110432
vn 0.000000 -0.993884 0.110432
vn 0.000000 -0.993884 0.110432
vn 0.000000 -0.993884 0.110432
vn 0.000000 -0.993884 0.110432
vn 0.000000 -0.993884 0.110432
vn -0.109764 -0.987878 0.109764
vn -0.109764 -0.987878 0.109764
vn -0.109764 -0.987878 0.109764
vn -0.173970 -0.969262 0.173970
vn -0.173970 -0.969262 0.173970
vn -0.173970 -0.969262 0.173970
vn 0.328188 0.918925 -0.218792
vn 0.328188 0.918925 -0.218792
vn 0.328188 0.918925 -0.218792
vn 0.412705 0.825410 -0.385191
vn 0.412705 0.825410 -0.385191
vn 0.412705 0.825410 -0.385191
vn 0.412705 0.825410 0.385191
vn 0.412705 0.825410 0.385191
vn 0.412705 0.825410 0.385191
vn 0.328188 0.918925 0.218792
vn 0.328188 0.918925 0.218792
vn 0.328188 0.918925 0.218792
vn 0.328188 -0.918925 0.218792
vn 0.328188 -0.918925 0.218792
vn 0.328188 -0.918925 0.218792
vn 0.412705 -0.825410 0.385191
vn 0.412705 -0.825410 0.385191
vn 0.412705 -0.825410 0.385191
vn -0.110431 0.993884 0.000000
vn -0.110431 0.993884 0.000000
vn -0.110431 0.993884 0.000000
vn -0.110431 0.993884 0.000000
vn -0.110431 0.993884 0.000000
vn -0.110431 0.993884 0.000000
vn -0.109764 0.987878 0.109764
vn -0.109764 0.987878 0.109764
vn -0.109764 0.987878 0.109764
vn -0.173970 0.969262 0.173970
vn -0.173970 0.969262 0.173970
vn -0.173970 0.969262 0.173970
vn -0.000000 0.993884 0.110431
vn 0.000000 0.993884 0.110431
vn 0.000000 0.993884 0.110431
vn 0.000000 0.993884 0.110431
vn 0.000000 0.993884 0.110431
vn -0.000000 0.993884 0.110431
vn -0.707107 -0.707107 0.000000
vn -0.707107 -0.707107 0.000000
vn -0.707107 -0.707107 -0.000000
vn -0.707107 -0.707107 0.000000
vn -0.707107 -0.707107 -0.000000
vn -0.707107 -0.707107 0.000000
vn -0.671492 -0.671492 0.313363
vn -0.671492 -0.671492 0.313363
vn -0.671492 -0.671492 0.313363
vn -0.570627 -0.798878 0.190209
vn -0.570627 -0.798878 0.190209
vn -0.570627 -0.798878 0.190209
vn -0.570627 0.798878 0.190209
vn -0.570627 0.798878 0.190209
vn -0.570627 0.798878 0.190209
vn -0.671492 0.671492 0.313363
vn -0.671492 0.671492 0.313363
vn -0.671492 0.671492 0.313363
vn 0.103744 0.729554 -0.676009
vn 0.103744 0.729554 -0.676009
vn 0.103744 0.729554 -0.676009
vn 0.117041 0.702247 -0.702247
vn 0.117041 0.702247 -0.702247
vn 0.117041 0.702247 -0.702247
vn 0.096422 0.809942 -0.578530
vn 0.096422 0.809942 -0.578530
vn 0.096422 0.809942 -0.578530
vn 0.162791 0.697674 -0.697674
vn 0.162791 0.697674 -0.697674
vn 0.162791 0.697674 -0.697674
vn 0.096422 -0.809942 -0.578530
vn 0.096422 -0.809942 -0.578530
vn 0.096422 -0.809942 -0.578530
vn 0.162791 -0.697674 -0.697674
vn 0.162791 -0.697674 -0.697674
vn 0.162791 -0.697674 -0.697674
vn -0.000000 0.993884 0.110431
vn 0.000000 0.993884 0.110431
vn 0.000000 0.993884 0.110431
vn -0.000000 0.993884 0.110431
vn 0.000000 0.993884 0.110431
vn 0.000000 0.993884 0.110431
vn 0.054813 0.986631 0.153476
vn 0.054813 0.986631 0.153476
vn 0.054813 0.986631 0.153476
vn 0.077072 0.990927 0.110103
vn 0.077072 0.990927 0.110103
vn 0.077072 0.990927 0.110103
vn 0.055132 0.992372 -0.110264
vn 0.055132 0.992372 -0.110264
vn 0.055132 0.992372 -0.110264
vn 0.087989 0.980454 -0.175979
vn 0.087989 0.980454 -0.175979
vn 0.087989 0.980454 -0.175979
vn 0.000000 -0.707107 0.707107
vn 0.000000 -0.707107 0.707107
vn 0.000000 -0.707107 0.707107
vn 0.000000 -0.707107 0.707107
vn 0.000000 -0.707107 0.707107
vn 0.000000 -0.707107 0.707107
vn 0.096422 -0.809942 0.578530
vn 0.096422 -0.809942 0.578530
vn 0.096422 -0.809942 0.578530
vn 0.162791 -0.697674 0.697674
vn 0.162791 -0.697674 0.697674
vn 0.162791 -0.697674 0.697674
vn 0.096422 0.809942 0.578530
vn 0.096422 0.809942 0.578530
vn 0.096422 0.809942 0.578530
vn 0.162791 0.697674 0.697674
vn 0.162791 0.697674 0.697674
vn 0.162791 0.697674 0.697674
vn 0.000000 -0.998581 -0.053258
vn 0.000000 -0.998581 -0.053258
vn -0.000000 -0.998581 -0.053258
vn 0.031194 -0.993400 -0.110378
vn 0.031194 -0.993400 -0.110378
vn 0.031194 -0.993400 -0.110378
vn 0.055132 -0.992372 -0.110264
vn 0.055132 -0.992372 -0.110264
vn 0.055132 -0.992372 -0.110264
vn 0.087989 -0.980454 -0.175979
vn 0.087989 -0.980454 -0.175979
vn 0.087989 -0.980454 -0.175979
vn 0.054813 -0.986631 0.153476
vn 0.054813 -0.986631 0.153476
vn 0.054813 -0.986631 0.153476
vn 0.077072 -0.990927 0.110103
vn 0.077072 -0.990927 0.110103
vn 0.077072 -0.990927 0.110103

f 1//1 2//2 3//3
f 2//4 4//5 3//6
f 5//7 6//8 7//9
f 7//10 6//11 8//12
f 9//13 10//14 11//15
f 10//16 12//17 11//18
f 13//19 14//20 15//21
f 14//22 16//23 15//24
f 17//25 18//26 19//27
f 19//28 18//29 20//30
f 9//31 14//32 21//33
f 14//34 13//35 21//36
f 22//37 23//38 24//39
f 23//40 25//41 24//42
f 26//43 27//44 28//45
f 27//46 29//47 28//48
f 30//49 31//50 6//51
f 31//52 32//53 6//54
f 33//55 5//56 34//57
f 5//58 35//59 34//60
f 17//61 19//62 36//63
f 36//64 19//65 37//66
f 31//67 38//68 32//69
f 39//70 32//71 38//72
f 40//73 41//74 42//75
f 41//76 43//77 42//78
f 44//79 45//80 46//81
f 46//82 45//83 47//84
f 4//85 44//86 3//87
f 44//88 43//89 3//90
f 43//91 41//92 3//93
f 41//94 48//95 3//96
f 48//97 49//98 3//99
f 49//100 1//101 3//102
f 6//103 32//104 8//105
f 32//106 50//107 8//108
f 8//109 50//110 12//111
f 50//112 51//113 12//114
f 12//115 10//116 8//117
f 10//118 7//119 8//120
f 12//121 51//122 11//123
f 51//124 52//125 11//126
f 52//127 53//128 11//129
f 53//130 16//131 11//132
f 16//133 14//134 11//135
f 14//136 9//137 11//138
f 15//139 16//140 18//141
f 16//142 53//143 18//144
f 25//145 15//146 17//147
f 18//148 17//149 15//150
f 23//151 13//152 25//153
f 25//154 13//155 15//156
f 18//157 53//158 20//159
f 53//160 52//161 20//162
f 52//163 51//164 20//165
f 51//166 50//167 20//168
f 32//169 19//170 50//171
f 50//172 19//173 20//174
f 13//175 23//176 21//177
f 23//178 35//179 21//180
f 35//181 5//182 21//183
f 5//184 7//185 21//186
f 7//187 10//188 21//189
f 10//190 9//191 21//192
f 24//193 25//194 45//195
f 25//196 17//197 45//198
f 45//199 44//200 24//201
f 44//202 4//203 24//204
f 24//205 4//206 22//207
f 4//208 2//209 22//210
f 29//211 54//212 28//213
f 54//214 55//215 28//216
f 55//217 56//218 28//219
f 56//220 57//221 28//222
f 57//223 58//224 28//225
f 58//226 26//227 28//228
f 6//229 5//230 30//231
f 5//232 33//233 30//234
f 30//235 33//236 48//237
f 33//238 49//239 48//240
f 48//241 41//242 30//243
f 41//244 31//245 30//246
f 35//247 23//248 34//249
f 23//250 22//251 34//252
f 22//253 2//254 34//255
f 2//256 1//257 34//258
f 1//259 49//260 34//261
f 49//262 33//263 34//264
f 32//265 39//266 19//267
f 19//268 39//269 37//270
f 29//271 37//272 54//273
f 39//274 54//275 37//276
f 29//277 27//278 37//279
f 27//280 36//281 37//282
f 41//283 40//284 31//285
f 31//286 40//287 38//288
f 55//289 38//290 56//291
f 40//292 56//293 38//294
f 38//295 55//296 39//297
f 55//298 54//299 39//300
f 43//301 44//302 42//303
f 44//304 46//305 42//306
f 57//307 42//308 58//309
f 46//310 58//311 42//312
f 57//313 56//314 42//315
f 56//316 40//317 42//318
f 45//319 17//320 47//321
f 17//322 36//323 47//324
f 47//325 36//326 26//327
f 36//328 27//329 26//330
f 26//331 58//332 47//333
f 58//334 46//335 47//336

