# This file uses centimeters as units for non-parametric coordinates.

mtllib stone2_large.mtl
g default
v -20.294167 10.237051 28.619978
v -18.270531 4.455237 26.596342
v -12.488717 10.237051 31.221794
v -12.488717 2.431602 28.619978
v -20.294167 18.042500 10.407265
v -12.488717 20.644314 10.407265
v -20.294167 18.042500 0.000000
v -12.488717 20.644314 0.000000
v -20.294167 10.237051 -7.805449
v -18.270531 16.018864 -5.781814
v -12.488717 10.237051 -10.407265
v -12.488717 18.042500 -7.805449
v -20.294167 2.431602 0.000000
v -18.270531 4.455237 -5.781814
v -12.488717 0.0 0.000000
v -12.488717 2.431602 -7.805449
v -0.416291 1.494949 10.407265
v -4.683269 2.431602 0.000000
v 3.122179 10.237051 7.805449
v -2.081453 10.237051 0.000000
v -22.895983 10.237051 0.000000
v -20.294167 2.431602 20.814529
v -20.294167 2.431602 10.407265
v -12.488717 0.0 20.814529
v -12.488717 0.0 10.407265
v 34.343971 2.431602 20.814529
v 30.296705 4.455237 15.032715
v 39.547607 10.237051 20.814529
v 34.343971 10.237051 13.009081
v -12.488717 20.644314 20.814529
v 0.520363 20.644314 20.814529
v -0.416291 18.979153 10.407265
v -20.294167 18.042500 20.814529
v -22.895983 10.237051 20.814529
v -22.895983 10.237051 10.407265
v 18.733076 2.431602 13.009081
v 18.733076 10.237051 10.407265
v 18.733076 20.644314 20.814529
v 18.733076 18.042500 13.009081
v 18.733076 18.042500 28.619978
v 0.520363 18.042500 28.619978
v 18.733076 10.237051 31.221794
v 0.520363 10.237051 31.221794
v 0.520363 2.431602 28.619978
v 0.520363 0.0 20.814529
v 18.733076 2.431602 28.619978
v 18.733076 0.0 20.814529
v -12.488717 18.042500 28.619978
v -18.270531 16.018864 26.596342
v -4.683269 18.042500 0.000000
v -6.706903 16.018864 -5.781814
v -4.683269 10.237051 -7.805449
v -6.706903 4.455237 -5.781814
v 30.296705 16.018864 15.032715
v 34.343971 18.042500 20.814529
v 30.296705 16.018864 26.596342
v 34.343971 10.237051 28.619978
v 30.296705 4.455237 26.596342
vn -0.707107 0.000000 0.707107
vn -0.622092 -0.475399 0.622092
vn -0.187662 0.000000 0.982234
vn -0.622092 -0.475399 0.622092
vn -0.253289 -0.726388 0.638909
vn -0.187662 0.000000 0.982234
vn -0.755689 0.654930 0.000000
vn -0.115691 0.992869 -0.028755
vn -0.619835 0.763023 -0.183304
vn -0.619835 0.763023 -0.183304
vn -0.115691 0.992869 -0.028755
vn -0.046589 0.975794 -0.213672
vn -0.707107 0.000000 -0.707107
vn -0.577350 0.577350 -0.577350
vn 0.000000 0.000000 -1.000000
vn -0.577350 0.577350 -0.577350
vn 0.077518 0.750154 -0.656704
vn 0.000000 0.000000 -1.000000
vn -0.619835 -0.763023 -0.183304
vn -0.577350 -0.577350 -0.577350
vn -0.046589 -0.975794 -0.213672
vn -0.577350 -0.577350 -0.577350
vn 0.077518 -0.750154 -0.656704
vn -0.046589 -0.975794 -0.213672
vn 0.261692 -0.900722 -0.346723
vn 0.636611 -0.654963 -0.407124
vn 0.567992 0.000000 -0.823034
vn 0.567992 0.000000 -0.823034
vn 0.636611 -0.654963 -0.407124
vn 0.900013 0.000000 -0.435863
vn -0.707107 0.000000 -0.707107
vn -0.577350 -0.577350 -0.577350
vn -0.982234 0.000000 -0.187662
vn -0.577350 -0.577350 -0.577350
vn -0.619835 -0.763023 -0.183304
vn -0.982234 0.000000 -0.187662
vn -0.638909 -0.726388 0.253289
vn -0.755689 -0.654931 0.000000
vn -0.159644 -0.974180 0.159644
vn -0.755689 -0.654931 0.000000
vn -0.115691 -0.992869 -0.028755
vn -0.159644 -0.974180 0.159644
vn 0.458809 -0.884152 -0.088147
vn 0.409962 -0.565463 -0.715670
vn 1.000000 0.000000 0.000000
vn 0.409962 -0.565463 -0.715670
vn 0.517333 0.000000 -0.855784
vn 1.000000 0.000000 0.000000
vn -0.159644 0.974180 0.159644
vn 0.023044 0.994048 0.106477
vn -0.115691 0.992869 -0.028755
vn 0.023044 0.994048 0.106477
vn 0.261692 0.900722 -0.346723
vn -0.115691 0.992869 -0.028755
vn -0.638909 0.726388 0.253289
vn -0.755689 0.654930 0.000000
vn -0.982234 0.000000 0.187662
vn -0.755689 0.654930 0.000000
vn -1.000000 0.000000 0.000000
vn -0.982234 0.000000 0.187662
vn 0.261692 -0.900722 -0.346723
vn 0.567992 0.000000 -0.823034
vn 0.181814 -0.677822 -0.712391
vn 0.181814 -0.677822 -0.712391
vn 0.567992 0.000000 -0.823034
vn 0.185755 0.000000 -0.982596
vn 0.023044 0.994048 0.106477
vn 0.107525 0.993165 0.045396
vn 0.261692 0.900722 -0.346723
vn 0.181814 0.677822 -0.712391
vn 0.261692 0.900722 -0.346723
vn 0.107525 0.993165 0.045396
vn 0.096630 0.770931 0.629546
vn 0.000000 0.654930 0.755689
vn 0.097782 0.000000 0.995208
vn 0.000000 0.654930 0.755689
vn 0.000000 0.000000 1.000000
vn 0.097782 0.000000 0.995208
vn 0.000000 -0.654931 0.755689
vn 0.023044 -0.994048 0.106477
vn 0.096630 -0.770931 0.629546
vn 0.096630 -0.770931 0.629546
vn 0.023044 -0.994048 0.106477
vn 0.107525 -0.993165 0.045396
vn -0.253289 -0.726388 0.638909
vn 0.000000 -0.654931 0.755689
vn -0.187662 0.000000 0.982234
vn 0.000000 -0.654931 0.755689
vn 0.000000 0.000000 1.000000
vn -0.187662 0.000000 0.982234
vn 0.000000 0.000000 1.000000
vn 0.000000 0.654930 0.755689
vn -0.187662 0.000000 0.982234
vn 0.000000 0.654930 0.755689
vn -0.253289 0.726388 0.638909
vn -0.187662 0.000000 0.982234
vn -0.253289 0.726388 0.638909
vn -0.622092 0.475399 0.622092
vn -0.187662 0.000000 0.982234
vn -0.622092 0.475399 0.622092
vn -0.707107 0.000000 0.707107
vn -0.187662 0.000000 0.982234
vn -0.115691 0.992869 -0.028755
vn 0.261692 0.900722 -0.346723
vn -0.046589 0.975794 -0.213672
vn 0.261692 0.900722 -0.346723
vn 0.636611 0.654963 -0.407124
vn -0.046589 0.975794 -0.213672
vn -0.046589 0.975794 -0.213672
vn 0.636611 0.654963 -0.407124
vn 0.077518 0.750154 -0.656704
vn 0.636611 0.654963 -0.407124
vn 0.622092 0.475399 -0.622092
vn 0.077518 0.750154 -0.656704
vn 0.077518 0.750154 -0.656704
vn -0.577350 0.577350 -0.577350
vn -0.046589 0.975794 -0.213672
vn -0.577350 0.577350 -0.577350
vn -0.619835 0.763023 -0.183304
vn -0.046589 0.975794 -0.213672
vn 0.077518 0.750154 -0.656704
vn 0.622092 0.475399 -0.622092
vn 0.000000 0.000000 -1.000000
vn 0.622092 0.475399 -0.622092
vn 0.707107 0.000000 -0.707107
vn 0.000000 0.000000 -1.000000
vn 0.707107 0.000000 -0.707107
vn 0.622092 -0.475399 -0.622092
vn 0.000000 0.000000 -1.000000
vn 0.622092 -0.475399 -0.622092
vn 0.077518 -0.750154 -0.656704
vn 0.000000 0.000000 -1.000000
vn 0.077518 -0.750154 -0.656704
vn -0.577350 -0.577350 -0.577350
vn 0.000000 0.000000 -1.000000
vn -0.577350 -0.577350 -0.577350
vn -0.707107 0.000000 -0.707107
vn 0.000000 0.000000 -1.000000
vn -0.046589 -0.975794 -0.213672
vn 0.077518 -0.750154 -0.656704
vn 0.636611 -0.654963 -0.407124
vn 0.077518 -0.750154 -0.656704
vn 0.622092 -0.475399 -0.622092
vn 0.636611 -0.654963 -0.407124
vn -0.115691 -0.992869 -0.028755
vn -0.046589 -0.975794 -0.213672
vn 0.261692 -0.900722 -0.346723
vn 0.636611 -0.654963 -0.407124
vn 0.261692 -0.900722 -0.346723
vn -0.046589 -0.975794 -0.213672
vn -0.755689 -0.654931 0.000000
vn -0.619835 -0.763023 -0.183304
vn -0.115691 -0.992869 -0.028755
vn -0.115691 -0.992869 -0.028755
vn -0.619835 -0.763023 -0.183304
vn -0.046589 -0.975794 -0.213672
vn 0.636611 -0.654963 -0.407124
vn 0.622092 -0.475399 -0.622092
vn 0.900013 0.000000 -0.435863
vn 0.622092 -0.475399 -0.622092
vn 0.707107 0.000000 -0.707107
vn 0.900013 0.000000 -0.435863
vn 0.707107 0.000000 -0.707107
vn 0.622092 0.475399 -0.622092
vn 0.900013 0.000000 -0.435863
vn 0.622092 0.475399 -0.622092
vn 0.636611 0.654963 -0.407124
vn 0.900013 0.000000 -0.435863
vn 0.261692 0.900722 -0.346723
vn 0.567992 0.000000 -0.823034
vn 0.636611 0.654963 -0.407124
vn 0.636611 0.654963 -0.407124
vn 0.567992 0.000000 -0.823034
vn 0.900013 0.000000 -0.435863
vn -0.619835 -0.763023 -0.183304
vn -0.755689 -0.654931 0.000000
vn -0.982234 0.000000 -0.187662
vn -0.755689 -0.654931 0.000000
vn -1.000000 0.000000 0.000000
vn -0.982234 0.000000 -0.187662
vn -1.000000 0.000000 0.000000
vn -0.755689 0.654930 0.000000
vn -0.982234 0.000000 -0.187662
vn -0.755689 0.654930 0.000000
vn -0.619835 0.763023 -0.183304
vn -0.982234 0.000000 -0.187662
vn -0.619835 0.763023 -0.183304
vn -0.577350 0.577350 -0.577350
vn -0.982234 0.000000 -0.187662
vn -0.577350 0.577350 -0.577350
vn -0.707107 0.000000 -0.707107
vn -0.982234 0.000000 -0.187662
vn -0.159644 -0.974180 0.159644
vn -0.115691 -0.992869 -0.028755
vn 0.023044 -0.994048 0.106477
vn -0.115691 -0.992869 -0.028755
vn 0.261692 -0.900722 -0.346723
vn 0.023044 -0.994048 0.106477
vn 0.023044 -0.994048 0.106477
vn 0.000000 -0.654931 0.755689
vn -0.159644 -0.974180 0.159644
vn 0.000000 -0.654931 0.755689
vn -0.253289 -0.726388 0.638909
vn -0.159644 -0.974180 0.159644
vn -0.159644 -0.974180 0.159644
vn -0.253289 -0.726388 0.638909
vn -0.638909 -0.726388 0.253289
vn -0.253289 -0.726388 0.638909
vn -0.622092 -0.475399 0.622092
vn -0.638909 -0.726388 0.253289
vn 0.517333 0.000000 -0.855784
vn 0.409962 0.565463 -0.715669
vn 1.000000 0.000000 0.000000
vn 0.409962 0.565463 -0.715669
vn 0.458809 0.884152 -0.088147
vn 1.000000 0.000000 0.000000
vn 0.458809 0.884152 -0.088147
vn 0.372714 0.656157 0.656157
vn 1.000000 0.000000 0.000000
vn 0.372714 0.656157 0.656157
vn 0.517333 0.000000 0.855784
vn 1.000000 0.000000 0.000000
vn 0.517333 0.000000 0.855784
vn 0.372714 -0.656157 0.656157
vn 1.000000 0.000000 0.000000
vn 0.372714 -0.656157 0.656157
vn 0.458809 -0.884152 -0.088147
vn 1.000000 0.000000 0.000000
vn -0.115691 0.992869 -0.028755
vn -0.755689 0.654930 0.000000
vn -0.159644 0.974180 0.159644
vn -0.755689 0.654930 0.000000
vn -0.638909 0.726388 0.253289
vn -0.159644 0.974180 0.159644
vn -0.159644 0.974180 0.159644
vn -0.638909 0.726388 0.253289
vn -0.253289 0.726388 0.638909
vn -0.638909 0.726388 0.253289
vn -0.622092 0.475399 0.622092
vn -0.253289 0.726388 0.638909
vn -0.253289 0.726388 0.638909
vn 0.000000 0.654930 0.755689
vn -0.159644 0.974180 0.159644
vn 0.000000 0.654930 0.755689
vn 0.023044 0.994048 0.106477
vn -0.159644 0.974180 0.159644
vn -1.000000 0.000000 0.000000
vn -0.755689 -0.654931 0.000000
vn -0.982234 0.000000 0.187662
vn -0.755689 -0.654931 0.000000
vn -0.638909 -0.726388 0.253289
vn -0.982234 0.000000 0.187662
vn -0.638909 -0.726388 0.253289
vn -0.622092 -0.475399 0.622092
vn -0.982234 0.000000 0.187662
vn -0.622092 -0.475399 0.622092
vn -0.707107 0.000000 0.707107
vn -0.982234 0.000000 0.187662
vn -0.707107 0.000000 0.707107
vn -0.622092 0.475399 0.622092
vn -0.982234 0.000000 0.187662
vn -0.622092 0.475399 0.622092
vn -0.638909 0.726388 0.253289
vn -0.982234 0.000000 0.187662
vn 0.261692 0.900722 -0.346723
vn 0.181814 0.677822 -0.712391
vn 0.567992 0.000000 -0.823034
vn 0.567992 0.000000 -0.823034
vn 0.181814 0.677822 -0.712391
vn 0.185755 0.000000 -0.982596
vn 0.517333 0.000000 -0.855784
vn 0.185755 0.000000 -0.982596
vn 0.409962 0.565463 -0.715669
vn 0.181814 0.677822 -0.712391
vn 0.409962 0.565463 -0.715669
vn 0.185755 0.000000 -0.982596
vn 0.517333 0.000000 -0.855784
vn 0.409962 -0.565463 -0.715670
vn 0.185755 0.000000 -0.982596
vn 0.409962 -0.565463 -0.715670
vn 0.181814 -0.677822 -0.712391
vn 0.185755 0.000000 -0.982596
vn 0.000000 0.654930 0.755689
vn 0.096630 0.770931 0.629546
vn 0.023044 0.994048 0.106477
vn 0.023044 0.994048 0.106477
vn 0.096630 0.770931 0.629546
vn 0.107525 0.993165 0.045396
vn 0.458809 0.884152 -0.088147
vn 0.107525 0.993165 0.045396
vn 0.372714 0.656157 0.656157
vn 0.096630 0.770931 0.629546
vn 0.372714 0.656157 0.656157
vn 0.107525 0.993165 0.045396
vn 0.107525 0.993165 0.045396
vn 0.458809 0.884152 -0.088147
vn 0.181814 0.677822 -0.712391
vn 0.458809 0.884152 -0.088147
vn 0.409962 0.565463 -0.715669
vn 0.181814 0.677822 -0.712391
vn 0.000000 0.000000 1.000000
vn 0.000000 -0.654931 0.755689
vn 0.097782 0.000000 0.995208
vn 0.000000 -0.654931 0.755689
vn 0.096630 -0.770931 0.629546
vn 0.097782 0.000000 0.995208
vn 0.517333 0.000000 0.855784
vn 0.097782 0.000000 0.995208
vn 0.372714 -0.656157 0.656157
vn 0.096630 -0.770931 0.629546
vn 0.372714 -0.656157 0.656157
vn 0.097782 0.000000 0.995208
vn 0.517333 0.000000 0.855784
vn 0.372714 0.656157 0.656157
vn 0.097782 0.000000 0.995208
vn 0.372714 0.656157 0.656157
vn 0.096630 0.770931 0.629546
vn 0.097782 0.000000 0.995208
vn 0.023044 -0.994048 0.106477
vn 0.261692 -0.900722 -0.346723
vn 0.107525 -0.993165 0.045396
vn 0.261692 -0.900722 -0.346723
vn 0.181814 -0.677822 -0.712391
vn 0.107525 -0.993165 0.045396
vn 0.107525 -0.993165 0.045396
vn 0.181814 -0.677822 -0.712391
vn 0.458809 -0.884152 -0.088147
vn 0.181814 -0.677822 -0.712391
vn 0.409962 -0.565463 -0.715670
vn 0.458809 -0.884152 -0.088147
vn 0.458809 -0.884152 -0.088147
vn 0.372714 -0.656157 0.656157
vn 0.107525 -0.993165 0.045396
vn 0.372714 -0.656157 0.656157
vn 0.096630 -0.770931 0.629546
vn 0.107525 -0.993165 0.045396
s off
g default1
usemtl lambert3SG
f 1//1 2//2 3//3
f 2//4 4//5 3//6
f 5//7 6//8 7//9
f 7//10 6//11 8//12
f 9//13 10//14 11//15
f 10//16 12//17 11//18
f 13//19 14//20 15//21
f 14//22 16//23 15//24
f 17//25 18//26 19//27
f 19//28 18//29 20//30
f 9//31 14//32 21//33
f 14//34 13//35 21//36
f 22//37 23//38 24//39
f 23//40 25//41 24//42
f 26//43 27//44 28//45
f 27//46 29//47 28//48
f 30//49 31//50 6//51
f 31//52 32//53 6//54
f 33//55 5//56 34//57
f 5//58 35//59 34//60
f 17//61 19//62 36//63
f 36//64 19//65 37//66
f 31//67 38//68 32//69
f 39//70 32//71 38//72
f 40//73 41//74 42//75
f 41//76 43//77 42//78
f 44//79 45//80 46//81
f 46//82 45//83 47//84
f 4//85 44//86 3//87
f 44//88 43//89 3//90
f 43//91 41//92 3//93
f 41//94 48//95 3//96
f 48//97 49//98 3//99
f 49//100 1//101 3//102
f 6//103 32//104 8//105
f 32//106 50//107 8//108
f 8//109 50//110 12//111
f 50//112 51//113 12//114
f 12//115 10//116 8//117
f 10//118 7//119 8//120
f 12//121 51//122 11//123
f 51//124 52//125 11//126
f 52//127 53//128 11//129
f 53//130 16//131 11//132
f 16//133 14//134 11//135
f 14//136 9//137 11//138
f 15//139 16//140 18//141
f 16//142 53//143 18//144
f 25//145 15//146 17//147
f 18//148 17//149 15//150
f 23//151 13//152 25//153
f 25//154 13//155 15//156
f 18//157 53//158 20//159
f 53//160 52//161 20//162
f 52//163 51//164 20//165
f 51//166 50//167 20//168
f 32//169 19//170 50//171
f 50//172 19//173 20//174
f 13//175 23//176 21//177
f 23//178 35//179 21//180
f 35//181 5//182 21//183
f 5//184 7//185 21//186
f 7//187 10//188 21//189
f 10//190 9//191 21//192
f 24//193 25//194 45//195
f 25//196 17//197 45//198
f 45//199 44//200 24//201
f 44//202 4//203 24//204
f 24//205 4//206 22//207
f 4//208 2//209 22//210
f 29//211 54//212 28//213
f 54//214 55//215 28//216
f 55//217 56//218 28//219
f 56//220 57//221 28//222
f 57//223 58//224 28//225
f 58//226 26//227 28//228
f 6//229 5//230 30//231
f 5//232 33//233 30//234
f 30//235 33//236 48//237
f 33//238 49//239 48//240
f 48//241 41//242 30//243
f 41//244 31//245 30//246
f 35//247 23//248 34//249
f 23//250 22//251 34//252
f 22//253 2//254 34//255
f 2//256 1//257 34//258
f 1//259 49//260 34//261
f 49//262 33//263 34//264
f 32//265 39//266 19//267
f 19//268 39//269 37//270
f 29//271 37//272 54//273
f 39//274 54//275 37//276
f 29//277 27//278 37//279
f 27//280 36//281 37//282
f 41//283 40//284 31//285
f 31//286 40//287 38//288
f 55//289 38//290 56//291
f 40//292 56//293 38//294
f 38//295 55//296 39//297
f 55//298 54//299 39//300
f 43//301 44//302 42//303
f 44//304 46//305 42//306
f 57//307 42//308 58//309
f 46//310 58//311 42//312
f 57//313 56//314 42//315
f 56//316 40//317 42//318
f 45//319 17//320 47//321
f 17//322 36//323 47//324
f 47//325 36//326 26//327
f 36//328 27//329 26//330
f 26//331 58//332 47//333
f 58//334 46//335 47//336
