v -2.445715 0.774870 2.445716
v -2.059207 0.321062 2.059207
v -1.291229 0.168446 2.262795
v -1.414917 0.799740 2.801180
v 0.000000 0.774870 2.792281
v 0.000000 0.162229 2.260570
v 1.291229 0.168446 2.262795
v 1.414918 0.799740 2.801180
v -2.195342 3.168946 2.195342
v -2.501974 1.756946 2.501974
v -1.442015 1.742901 2.867545
v -1.286379 3.087893 2.535471
v 0.000000 3.168946 2.507615
v 0.000000 1.756946 2.858356
v 1.442015 1.742901 2.867545
v 1.286379 3.087893 2.535471
v -1.816838 4.490485 1.031377
v -1.711777 4.162874 1.711778
v -1.031377 4.490485 1.816838
v -0.946376 4.958015 0.946376
v 0.000000 4.958015 0.946376
v 0.000000 4.510748 1.809874
v 1.031377 4.490485 1.816838
v 0.946376 4.958015 0.946376
v -1.816838 4.490485 -1.031377
v -1.809874 4.510748 0.000000
v -0.946376 4.958015 0.000000
v -0.946376 4.958015 -0.946376
v 0.000000 4.958015 -0.946376
v 0.000000 4.958015 0.000000
v 0.946376 4.958015 0.000000
v 0.946376 4.958015 -0.946376
v -2.195342 3.168946 -2.195342
v -1.711777 4.162874 -1.711778
v -1.031377 4.490485 -1.816838
v -1.286379 3.087893 -2.535471
v 0.000000 3.168946 -2.507615
v 0.000000 4.510748 -1.809874
v 1.031377 4.490485 -1.816838
v 1.286379 3.087893 -2.535471
v -2.445715 0.774870 -2.445716
v -2.501974 1.756946 -2.501974
v -1.442015 1.742901 -2.867545
v -1.414917 0.799740 -2.801180
v 0.000000 0.774870 -2.792281
v 0.000000 1.756946 -2.858356
v 1.442015 1.742901 -2.867545
v 1.414918 0.799740 -2.801180
v -2.262795 0.168446 -1.291229
v -2.059207 0.321062 -2.059207
v -1.291229 0.168446 -2.262795
v -1.250000 -0.041985 -1.250000
v 0.000000 -0.041985 -1.250000
v 0.000000 0.162229 -2.260570
v 1.291229 0.168446 -2.262795
v 1.250000 -0.041985 -1.250000
v -2.262795 0.168446 1.291229
v -2.260570 0.162229 0.000000
v -1.250000 -0.041985 0.000000
v -1.250000 -0.041985 1.250000
v 0.000000 -0.041985 1.250000
v 0.000000 -0.041985 0.000000
v 1.250000 -0.041985 0.000000
v 1.250000 -0.041985 1.250000
v 2.792281 0.774870 0.000000
v 2.260570 0.162229 0.000000
v 2.262795 0.168446 -1.291229
v 2.801180 0.799740 -1.414918
v 2.445716 0.774870 2.445715
v 2.059207 0.321062 2.059207
v 2.262795 0.168446 1.291229
v 2.801180 0.799740 1.414917
v 2.507615 3.168946 0.000000
v 2.858356 1.756946 0.000000
v 2.867545 1.742901 -1.442015
v 2.535471 3.087893 -1.286379
v 2.195342 3.168946 2.195342
v 2.501974 1.756946 2.501974
v 2.867545 1.742901 1.442015
v 2.535471 3.087893 1.286379
v -2.801180 0.799740 -1.414917
v -2.792281 0.774870 0.000000
v -2.801180 0.799740 1.414918
v -2.867545 1.742901 -1.442015
v -2.535471 3.087893 -1.286379
v -2.507615 3.168946 0.000000
v -2.858356 1.756946 0.000000
v -2.867545 1.742901 1.442015
v -2.535471 3.087893 1.286379
v 1.711777 4.162874 1.711778
v 1.816838 4.490485 1.031377
v 1.809874 4.510748 0.000000
v 1.816838 4.490485 -1.031377
v 1.711777 4.162874 -1.711778
v 2.195342 3.168946 -2.195342
v 2.501974 1.756946 -2.501974
v 2.445716 0.774870 -2.445716
v 2.059207 0.321062 -2.059207
vt 0.682418 0.687080
vt 0.637289 0.670933
vt 0.637289 0.599706
vt 0.685252 0.609103
vt 0.682418 0.528479
vt 0.637289 0.528479
vt 0.637289 0.457253
vt 0.685252 0.447856
vt 0.824871 0.669779
vt 0.727546 0.703228
vt 0.727546 0.615854
vt 0.815634 0.601779
vt 0.824871 0.528479
vt 0.727546 0.528479
vt 0.727546 0.441105
vt 0.815634 0.455180
vt 0.365471 0.760548
vt 0.365471 0.706622
vt 0.419397 0.706622
vt 0.419397 0.760548
vt 0.473323 0.760548
vt 0.473323 0.706622
vt 0.527249 0.706622
vt 0.527249 0.760548
vt 0.365471 0.868399
vt 0.365471 0.814473
vt 0.419397 0.814473
vt 0.419397 0.868399
vt 0.473323 0.868399
vt 0.473323 0.814473
vt 0.527249 0.814473
vt 0.527249 0.868399
vt 0.462796 0.316889
vt 0.365471 0.283440
vt 0.365471 0.229515
vt 0.472033 0.248888
vt 0.462796 0.175589
vt 0.365471 0.175589
vt 0.365471 0.122205
vt 0.472033 0.103441
vt 0.605250 0.334190
vt 0.560121 0.350337
vt 0.560121 0.262963
vt 0.602415 0.256213
vt 0.605250 0.175589
vt 0.560121 0.175589
vt 0.560121 0.089840
vt 0.602415 0.096607
vt 0.075303 0.777848
vt 0.075303 0.706622
vt 0.146530 0.706622
vt 0.146530 0.777848
vt 0.217756 0.777848
vt 0.217756 0.706622
vt 0.288983 0.706622
vt 0.288983 0.777848
vt 0.075303 0.920302
vt 0.075303 0.849075
vt 0.146530 0.849075
vt 0.146530 0.920302
vt 0.217756 0.920302
vt 0.217756 0.849075
vt 0.288983 0.849075
vt 0.288983 0.920302
vt 0.392294 0.528480
vt 0.347166 0.528480
vt 0.347166 0.458502
vt 0.395128 0.449118
vt 0.392294 0.687080
vt 0.347166 0.670933
vt 0.347166 0.599706
vt 0.395128 0.609103
vt 0.534748 0.528480
vt 0.437423 0.528480
vt 0.437423 0.442355
vt 0.525510 0.456448
vt 0.534748 0.669780
vt 0.437423 0.703228
vt 0.437423 0.615854
vt 0.525510 0.601779
vt 0.120431 0.334190
vt 0.075303 0.318042
vt 0.075303 0.246816
vt 0.123266 0.256213
vt 0.120431 0.175589
vt 0.075303 0.175589
vt 0.075303 0.104362
vt 0.123266 0.094965
vt 0.262885 0.316889
vt 0.165560 0.350337
vt 0.165560 0.262963
vt 0.253648 0.248888
vt 0.262885 0.175589
vt 0.165560 0.175589
vt 0.165560 0.088215
vt 0.253648 0.102538
vt 0.637289 0.386026
vt 0.682418 0.369879
vt 0.727546 0.353731
vt 0.922196 0.528479
vt 0.922196 0.582405
vt 0.922196 0.636331
vt 0.824871 0.387179
vt 0.922196 0.420628
vt 0.922196 0.474554
vt 0.581174 0.706622
vt 0.581174 0.760548
vt 0.581174 0.814473
vt 0.473323 0.922325
vt 0.419397 0.922325
vt 0.365471 0.922325
vt 0.581174 0.868399
vt 0.581174 0.922325
vt 0.527249 0.922325
vt 0.365471 0.068821
vt 0.462796 0.036457
vt 0.560121 0.004092
vt 0.650378 0.175589
vt 0.650378 0.246815
vt 0.650378 0.318042
vt 0.605250 0.020240
vt 0.650378 0.036387
vt 0.650378 0.105988
vt 0.360210 0.706622
vt 0.360210 0.777848
vt 0.360210 0.849075
vt 0.217756 0.991529
vt 0.146530 0.991529
vt 0.075303 0.991529
vt 0.360210 0.920302
vt 0.360210 0.991529
vt 0.288983 0.991529
vt 0.347166 0.388525
vt 0.392294 0.372377
vt 0.437423 0.356230
vt 0.534748 0.389678
vt 0.632073 0.423127
vt 0.632073 0.475803
vt 0.632073 0.528480
vt 0.632073 0.582405
vt 0.632073 0.636331
vt 0.075303 0.033135
vt 0.120431 0.016988
vt 0.165560 0.000840
vt 0.360210 0.175589
vt 0.360210 0.229515
vt 0.360210 0.283440
vt 0.262885 0.034831
vt 0.360210 0.068821
vt 0.360210 0.122205
vn -0.155821 -0.399218 0.903518
vn -0.633882 -0.443156 0.633882
vn -0.126178 -0.864640 0.486289
vn -0.401948 -0.822724 0.401948
vn 0.000000 -0.379886 0.925033
vn 0.000000 -0.862267 0.506454
vn 0.155821 -0.399218 0.903518
vn 0.126179 -0.864640 0.486289
vn -0.161396 0.092881 0.982509
vn -0.158395 0.373518 0.914000
vn -0.703045 0.107031 0.703045
vn -0.641977 0.419203 0.641977
vn 0.161396 0.092881 0.982509
vn 0.158395 0.373518 0.914000
vn 0.000000 0.086851 0.996221
vn 0.000000 0.352047 0.935982
vn -0.684635 0.702208 0.195396
vn -0.543298 0.640043 0.543298
vn -0.235372 0.942974 0.235372
vn -0.195396 0.702208 0.684635
vn 0.000000 0.704220 0.709982
vn 0.195396 0.702208 0.684635
vn 0.000000 0.970724 0.240197
vn 0.235372 0.942974 0.235372
vn -0.709982 0.704220 0.000000
vn -0.240197 0.970724 0.000000
vn -0.684635 0.702208 -0.195396
vn -0.235372 0.942974 -0.235372
vn 0.000000 0.970724 -0.240197
vn 0.000000 1.000000 0.000000
vn 0.235372 0.942974 -0.235372
vn 0.240197 0.970724 0.000000
vn -0.158395 0.373518 -0.914000
vn -0.641977 0.419203 -0.641977
vn -0.195396 0.702208 -0.684635
vn -0.543298 0.640043 -0.543298
vn 0.000000 0.352047 -0.935982
vn 0.000000 0.704220 -0.709982
vn 0.158395 0.373518 -0.914000
vn 0.195396 0.702208 -0.684635
vn -0.633882 -0.443156 -0.633882
vn -0.703045 0.107031 -0.703045
vn -0.155821 -0.399219 -0.903518
vn -0.161396 0.092881 -0.982509
vn 0.000000 -0.379886 -0.925033
vn 0.000000 0.086851 -0.996221
vn 0.155821 -0.399219 -0.903518
vn 0.161396 0.092881 -0.982509
vn -0.486289 -0.864640 -0.126179
vn -0.401948 -0.822724 -0.401948
vn -0.105331 -0.988843 -0.105331
vn -0.126178 -0.864640 -0.486289
vn 0.000000 -0.862267 -0.506454
vn 0.126178 -0.864640 -0.486289
vn 0.000000 -0.994900 -0.100871
vn 0.105331 -0.988843 -0.105331
vn -0.506454 -0.862267 0.000000
vn -0.100871 -0.994900 0.000000
vn -0.486289 -0.864640 0.126179
vn -0.105331 -0.988843 0.105331
vn 0.000000 -0.994900 0.100871
vn 0.000000 -1.000000 0.000000
vn 0.105331 -0.988843 0.105331
vn 0.100871 -0.994900 0.000000
vn 0.925033 -0.379886 0.000000
vn 0.506454 -0.862267 0.000000
vn 0.903518 -0.399219 -0.155821
vn 0.486289 -0.864640 -0.126178
vn 0.903518 -0.399218 0.155821
vn 0.633882 -0.443156 0.633882
vn 0.486289 -0.864640 0.126179
vn 0.401948 -0.822724 0.401948
vn 0.982509 0.092881 -0.161396
vn 0.914000 0.373518 -0.158395
vn 0.996221 0.086851 0.000000
vn 0.935982 0.352047 0.000000
vn 0.982509 0.092881 0.161396
vn 0.914000 0.373518 0.158395
vn 0.703045 0.107031 0.703045
vn 0.641977 0.419203 0.641977
vn -0.903518 -0.399218 -0.155821
vn -0.633882 -0.443156 -0.633882
vn -0.486289 -0.864640 -0.126179
vn -0.401948 -0.822724 -0.401948
vn -0.925033 -0.379886 0.000000
vn -0.506454 -0.862267 0.000000
vn -0.903518 -0.399218 0.155821
vn -0.486289 -0.864640 0.126179
vn -0.982509 0.092881 -0.161396
vn -0.914000 0.373518 -0.158395
vn -0.703045 0.107031 -0.703045
vn -0.641977 0.419203 -0.641977
vn -0.982509 0.092881 0.161396
vn -0.914000 0.373518 0.158395
vn -0.996221 0.086851 0.000000
vn -0.935982 0.352047 0.000000
vn 0.000000 -0.379886 0.925033
vn -0.155821 -0.399218 0.903518
vn 0.000000 -0.862267 0.506454
vn -0.126178 -0.864640 0.486289
vn 0.000000 -0.379886 0.925033
vn 0.000000 0.086851 0.996221
vn -0.155821 -0.399218 0.903518
vn -0.161396 0.092881 0.982509
vn -0.161396 0.092881 0.982509
vn -0.703045 0.107031 0.703045
vn -0.155821 -0.399218 0.903518
vn -0.633882 -0.443156 0.633882
vn 0.155821 -0.399218 0.903518
vn 0.126179 -0.864640 0.486289
vn 0.633882 -0.443156 0.633882
vn 0.401948 -0.822724 0.401948
vn 0.633882 -0.443156 0.633882
vn 0.703045 0.107031 0.703045
vn 0.155821 -0.399218 0.903518
vn 0.161396 0.092881 0.982509
vn 0.161396 0.092881 0.982509
vn 0.000000 0.086851 0.996221
vn 0.155821 -0.399218 0.903518
vn 0.000000 -0.379886 0.925033
vn -0.161396 0.092881 0.982509
vn 0.000000 0.086851 0.996221
vn -0.158395 0.373518 0.914000
vn 0.000000 0.352047 0.935982
vn 0.000000 0.352047 0.935982
vn 0.000000 0.704220 0.709982
vn -0.158395 0.373518 0.914000
vn -0.195396 0.702208 0.684635
vn -0.158395 0.373518 0.914000
vn -0.195396 0.702208 0.684635
vn -0.641977 0.419203 0.641977
vn -0.543298 0.640043 0.543298
vn 0.161396 0.092881 0.982509
vn 0.703045 0.107031 0.703045
vn 0.158395 0.373518 0.914000
vn 0.641977 0.419203 0.641977
vn 0.158395 0.373518 0.914000
vn 0.641977 0.419203 0.641977
vn 0.195396 0.702208 0.684635
vn 0.543298 0.640043 0.543298
vn 0.000000 0.352047 0.935982
vn 0.158395 0.373518 0.914000
vn 0.000000 0.704220 0.709982
vn 0.195396 0.702208 0.684635
vn 0.000000 0.704220 0.709982
vn 0.000000 0.970724 0.240197
vn -0.195396 0.702208 0.684635
vn -0.235372 0.942974 0.235372
vn 0.000000 0.970724 0.240197
vn 0.000000 1.000000 0.000000
vn -0.235372 0.942974 0.235372
vn -0.240197 0.970724 0.000000
vn -0.709982 0.704220 0.000000
vn -0.684635 0.702208 0.195396
vn -0.240197 0.970724 0.000000
vn -0.235372 0.942974 0.235372
vn 0.195396 0.702208 0.684635
vn 0.543298 0.640043 0.543298
vn 0.235372 0.942974 0.235372
vn 0.684635 0.702208 0.195396
vn 0.709982 0.704220 0.000000
vn 0.240197 0.970724 0.000000
vn 0.684635 0.702208 0.195396
vn 0.235372 0.942974 0.235372
vn 0.240197 0.970724 0.000000
vn 0.000000 1.000000 0.000000
vn 0.235372 0.942974 0.235372
vn 0.000000 0.970724 0.240197
vn -0.240197 0.970724 0.000000
vn 0.000000 1.000000 0.000000
vn -0.235372 0.942974 -0.235372
vn 0.000000 0.970724 -0.240197
vn 0.000000 0.704220 -0.709982
vn -0.195396 0.702208 -0.684635
vn 0.000000 0.970724 -0.240197
vn -0.235372 0.942974 -0.235372
vn -0.195396 0.702208 -0.684635
vn -0.543298 0.640043 -0.543298
vn -0.235372 0.942974 -0.235372
vn -0.684635 0.702208 -0.195396
vn 0.709982 0.704220 0.000000
vn 0.684635 0.702208 -0.195396
vn 0.240197 0.970724 0.000000
vn 0.235372 0.942974 -0.235372
vn 0.684635 0.702208 -0.195396
vn 0.543298 0.640043 -0.543298
vn 0.235372 0.942974 -0.235372
vn 0.195396 0.702208 -0.684635
vn 0.000000 0.704220 -0.709982
vn 0.000000 0.970724 -0.240197
vn 0.195396 0.702208 -0.684635
vn 0.235372 0.942974 -0.235372
vn 0.000000 0.352047 -0.935982
vn -0.158395 0.373518 -0.914000
vn 0.000000 0.704220 -0.709982
vn -0.195396 0.702208 -0.684635
vn -0.161396 0.092881 -0.982509
vn -0.158395 0.373518 -0.914000
vn 0.000000 0.086851 -0.996221
vn 0.000000 0.352047 -0.935982
vn -0.161396 0.092881 -0.982509
vn -0.703045 0.107031 -0.703045
vn -0.158395 0.373518 -0.914000
vn -0.641977 0.419203 -0.641977
vn 0.158395 0.373518 -0.914000
vn 0.195396 0.702208 -0.684635
vn 0.641977 0.419203 -0.641977
vn 0.543298 0.640043 -0.543298
vn 0.161396 0.092881 -0.982509
vn 0.158395 0.373518 -0.914000
vn 0.703045 0.107031 -0.703045
vn 0.641977 0.419203 -0.641977
vn 0.161396 0.092881 -0.982509
vn 0.000000 0.086851 -0.996221
vn 0.158395 0.373518 -0.914000
vn 0.000000 0.352047 -0.935982
vn -0.161396 0.092881 -0.982509
vn 0.000000 0.086851 -0.996221
vn -0.155821 -0.399219 -0.903518
vn 0.000000 -0.379886 -0.925033
vn 0.000000 -0.379886 -0.925033
vn 0.000000 -0.862267 -0.506454
vn -0.155821 -0.399219 -0.903518
vn -0.126178 -0.864640 -0.486289
vn -0.155821 -0.399219 -0.903518
vn -0.126178 -0.864640 -0.486289
vn -0.633882 -0.443156 -0.633882
vn -0.401948 -0.822724 -0.401948
vn 0.161396 0.092881 -0.982509
vn 0.703045 0.107031 -0.703045
vn 0.155821 -0.399219 -0.903518
vn 0.633882 -0.443156 -0.633882
vn 0.155821 -0.399219 -0.903518
vn 0.633882 -0.443156 -0.633882
vn 0.126178 -0.864640 -0.486289
vn 0.401948 -0.822724 -0.401948
vn 0.000000 -0.379886 -0.925033
vn 0.155821 -0.399219 -0.903518
vn 0.000000 -0.862267 -0.506454
vn 0.126178 -0.864640 -0.486289
vn 0.000000 -0.862267 -0.506454
vn 0.000000 -0.994900 -0.100871
vn -0.126178 -0.864640 -0.486289
vn -0.105331 -0.988843 -0.105331
vn 0.000000 -0.994900 -0.100871
vn 0.000000 -1.000000 0.000000
vn -0.105331 -0.988843 -0.105331
vn -0.100871 -0.994900 0.000000
vn -0.506454 -0.862267 0.000000
vn -0.486289 -0.864640 -0.126179
vn -0.100871 -0.994900 0.000000
vn -0.105331 -0.988843 -0.105331
vn 0.126178 -0.864640 -0.486289
vn 0.401948 -0.822724 -0.401948
vn 0.105331 -0.988843 -0.105331
vn 0.486289 -0.864640 -0.126178
vn 0.506454 -0.862267 0.000000
vn 0.100871 -0.994900 0.000000
vn 0.486289 -0.864640 -0.126178
vn 0.105331 -0.988843 -0.105331
vn 0.100871 -0.994900 0.000000
vn 0.000000 -1.000000 0.000000
vn 0.105331 -0.988843 -0.105331
vn 0.000000 -0.994900 -0.100871
vn -0.100871 -0.994900 0.000000
vn 0.000000 -1.000000 0.000000
vn -0.105331 -0.988843 0.105331
vn 0.000000 -0.994900 0.100871
vn 0.000000 -0.862267 0.506454
vn -0.126178 -0.864640 0.486289
vn 0.000000 -0.994900 0.100871
vn -0.105331 -0.988843 0.105331
vn -0.126178 -0.864640 0.486289
vn -0.401948 -0.822724 0.401948
vn -0.105331 -0.988843 0.105331
vn -0.486289 -0.864640 0.126179
vn 0.506454 -0.862267 0.000000
vn 0.486289 -0.864640 0.126179
vn 0.100871 -0.994900 0.000000
vn 0.105331 -0.988843 0.105331
vn 0.486289 -0.864640 0.126179
vn 0.401948 -0.822724 0.401948
vn 0.105331 -0.988843 0.105331
vn 0.126179 -0.864640 0.486289
vn 0.000000 -0.862267 0.506454
vn 0.000000 -0.994900 0.100871
vn 0.126179 -0.864640 0.486289
vn 0.105331 -0.988843 0.105331
vn 0.903518 -0.399219 -0.155821
vn 0.486289 -0.864640 -0.126178
vn 0.633882 -0.443156 -0.633882
vn 0.401948 -0.822724 -0.401948
vn 0.633882 -0.443156 -0.633882
vn 0.703045 0.107031 -0.703045
vn 0.903518 -0.399219 -0.155821
vn 0.982509 0.092881 -0.161396
vn 0.982509 0.092881 -0.161396
vn 0.996221 0.086851 0.000000
vn 0.903518 -0.399219 -0.155821
vn 0.925033 -0.379886 0.000000
vn 0.925033 -0.379886 0.000000
vn 0.903518 -0.399218 0.155821
vn 0.506454 -0.862267 0.000000
vn 0.486289 -0.864640 0.126179
vn 0.925033 -0.379886 0.000000
vn 0.996221 0.086851 0.000000
vn 0.903518 -0.399218 0.155821
vn 0.982509 0.092881 0.161396
vn 0.982509 0.092881 0.161396
vn 0.703045 0.107031 0.703045
vn 0.903518 -0.399218 0.155821
vn 0.633882 -0.443156 0.633882
vn 0.982509 0.092881 -0.161396
vn 0.703045 0.107031 -0.703045
vn 0.914000 0.373518 -0.158395
vn 0.641977 0.419203 -0.641977
vn 0.914000 0.373518 -0.158395
vn 0.641977 0.419203 -0.641977
vn 0.684635 0.702208 -0.195396
vn 0.543298 0.640043 -0.543298
vn 0.935982 0.352047 0.000000
vn 0.914000 0.373518 -0.158395
vn 0.709982 0.704220 0.000000
vn 0.684635 0.702208 -0.195396
vn 0.982509 0.092881 0.161396
vn 0.996221 0.086851 0.000000
vn 0.914000 0.373518 0.158395
vn 0.935982 0.352047 0.000000
vn 0.935982 0.352047 0.000000
vn 0.709982 0.704220 0.000000
vn 0.914000 0.373518 0.158395
vn 0.684635 0.702208 0.195396
vn 0.914000 0.373518 0.158395
vn 0.684635 0.702208 0.195396
vn 0.641977 0.419203 0.641977
vn 0.543298 0.640043 0.543298
vn -0.925033 -0.379886 0.000000
vn -0.903518 -0.399218 -0.155821
vn -0.506454 -0.862267 0.000000
vn -0.486289 -0.864640 -0.126179
vn -0.925033 -0.379886 0.000000
vn -0.996221 0.086851 0.000000
vn -0.903518 -0.399218 -0.155821
vn -0.982509 0.092881 -0.161396
vn -0.982509 0.092881 -0.161396
vn -0.703045 0.107031 -0.703045
vn -0.903518 -0.399218 -0.155821
vn -0.633882 -0.443156 -0.633882
vn -0.903518 -0.399218 0.155821
vn -0.486289 -0.864640 0.126179
vn -0.633882 -0.443156 0.633882
vn -0.401948 -0.822724 0.401948
vn -0.633882 -0.443156 0.633882
vn -0.703045 0.107031 0.703045
vn -0.903518 -0.399218 0.155821
vn -0.982509 0.092881 0.161396
vn -0.982509 0.092881 0.161396
vn -0.996221 0.086851 0.000000
vn -0.903518 -0.399218 0.155821
vn -0.925033 -0.379886 0.000000
vn -0.982509 0.092881 -0.161396
vn -0.996221 0.086851 0.000000
vn -0.914000 0.373518 -0.158395
vn -0.935982 0.352047 0.000000
vn -0.935982 0.352047 0.000000
vn -0.709982 0.704220 0.000000
vn -0.914000 0.373518 -0.158395
vn -0.684635 0.702208 -0.195396
vn -0.914000 0.373518 -0.158395
vn -0.684635 0.702208 -0.195396
vn -0.641977 0.419203 -0.641977
vn -0.543298 0.640043 -0.543298
vn -0.982509 0.092881 0.161396
vn -0.703045 0.107031 0.703045
vn -0.914000 0.373518 0.158395
vn -0.641977 0.419203 0.641977
vn -0.914000 0.373518 0.158395
vn -0.641977 0.419203 0.641977
vn -0.684635 0.702208 0.195396
vn -0.543298 0.640043 0.543298
vn -0.935982 0.352047 0.000000
vn -0.914000 0.373518 0.158395
vn -0.709982 0.704220 0.000000
vn -0.684635 0.702208 0.195396
s 1
g default
usemtl lambert2SG1
f 4/4/1 1/1/2 3/3/3
f 1/1/2 2/2/4 3/3/3
s 2
f 5/5/5 6/6/6 8/8/7
f 6/6/6 7/7/8 8/8/7
s 3
f 11/11/9 12/12/10 10/10/11
f 9/9/12 10/10/11 12/12/10
s 4
f 15/15/13 16/16/14 14/14/15
f 13/13/16 14/14/15 16/16/14
s 5
f 17/17/17 18/18/18 20/20/19
f 18/18/18 19/19/20 20/20/19
s 6
f 22/22/21 23/23/22 21/21/23
f 21/21/23 23/23/22 24/24/24
s 7
f 26/26/25 27/27/26 25/25/27
f 25/25/27 27/27/26 28/28/28
s 8
f 29/29/29 30/30/30 32/32/31
f 30/30/30 31/31/32 32/32/31
s 9
f 36/36/33 33/33/34 35/35/35
f 33/33/34 34/34/36 35/35/35
s 10
f 37/37/37 38/38/38 40/40/39
f 38/38/38 39/39/40 40/40/39
s 11
f 41/41/41 42/42/42 44/44/43
f 42/42/42 43/43/44 44/44/43
s 12
f 45/45/45 46/46/46 48/48/47
f 46/46/46 47/47/48 48/48/47
s 13
f 49/49/49 50/50/50 52/52/51
f 50/50/50 51/51/52 52/52/51
s 14
f 54/54/53 55/55/54 53/53/55
f 53/53/55 55/55/54 56/56/56
s 15
f 58/58/57 59/59/58 57/57/59
f 57/57/59 59/59/58 60/60/60
s 16
f 61/61/61 62/62/62 64/64/63
f 62/62/62 63/63/64 64/64/63
s 17
f 65/65/65 66/66/66 68/68/67
f 66/66/66 67/67/68 68/68/67
s 18
f 72/72/69 69/69/70 71/71/71
f 69/69/70 70/70/72 71/71/71
s 19
f 75/75/73 76/76/74 74/74/75
f 73/73/76 74/74/75 76/76/74
s 20
f 79/79/77 80/80/78 78/78/79
f 77/77/80 78/78/79 80/80/78
s 21
f 81/84/81 41/81/82 49/83/83
f 41/81/82 50/82/84 49/83/83
s 22
f 82/85/85 58/86/86 83/88/87
f 58/86/86 57/87/88 83/88/87
s 23
f 84/91/89 85/92/90 42/90/91
f 33/89/92 42/90/91 85/92/90
s 24
f 88/95/93 89/96/94 87/94/95
f 86/93/96 87/94/95 89/96/94
s 25
f 5/5/97 4/4/98 6/6/99
f 3/3/100 6/6/99 4/4/98
s 26
f 5/5/101 14/14/102 4/4/103
f 14/14/102 11/11/104 4/4/103
s 27
f 11/11/105 10/10/106 4/4/107
f 10/10/106 1/1/108 4/4/107
s 28
f 8/8/109 7/7/110 69/98/111
f 7/7/110 70/97/112 69/98/111
s 29
f 69/98/113 78/99/114 8/8/115
f 78/99/114 15/15/116 8/8/115
s 30
f 15/15/117 14/14/118 8/8/119
f 14/14/118 5/5/120 8/8/119
s 31
f 11/11/121 14/14/122 12/12/123
f 14/14/122 13/13/124 12/12/123
s 32
f 13/13/125 22/100/126 12/12/127
f 22/100/126 19/101/128 12/12/127
s 33
f 12/12/129 19/101/130 9/9/131
f 19/101/130 18/102/132 9/9/131
s 34
f 15/15/133 78/99/134 16/16/135
f 78/99/134 77/103/136 16/16/135
s 35
f 16/16/137 77/103/138 23/105/139
f 77/103/138 90/104/140 23/105/139
s 36
f 13/13/141 16/16/142 22/100/143
f 23/105/144 22/100/143 16/16/142
s 37
f 22/22/145 21/21/146 19/19/147
f 19/19/147 21/21/146 20/20/148
s 38
f 21/21/149 30/30/150 20/20/151
f 30/30/150 27/27/152 20/20/151
s 39
f 26/26/153 17/17/154 27/27/155
f 27/27/155 17/17/154 20/20/156
s 40
f 23/23/157 90/106/158 24/24/159
f 90/106/158 91/107/160 24/24/159
s 41
f 92/108/161 31/31/162 91/107/163
f 91/107/163 31/31/162 24/24/164
s 42
f 31/31/165 30/30/166 24/24/167
f 30/30/166 21/21/168 24/24/167
s 43
f 27/27/169 30/30/170 28/28/171
f 30/30/170 29/29/172 28/28/171
s 44
f 38/109/173 35/110/174 29/29/175
f 29/29/175 35/110/174 28/28/176
s 45
f 35/110/177 34/111/178 28/28/179
f 34/111/178 25/25/180 28/28/179
s 46
f 92/108/181 93/112/182 31/31/183
f 31/31/183 93/112/182 32/32/184
s 47
f 93/112/185 94/113/186 32/32/187
f 94/113/186 39/114/188 32/32/187
s 48
f 38/109/189 29/29/190 39/114/191
f 39/114/191 29/29/190 32/32/192
s 49
f 37/37/193 36/36/194 38/38/195
f 35/35/196 38/38/195 36/36/194
s 50
f 43/43/197 36/36/198 46/46/199
f 37/37/200 46/46/199 36/36/198
s 51
f 43/43/201 42/42/202 36/36/203
f 42/42/202 33/33/204 36/36/203
s 52
f 40/40/205 39/39/206 95/116/207
f 39/39/206 94/115/208 95/116/207
s 53
f 47/47/209 40/40/210 96/117/211
f 95/116/212 96/117/211 40/40/210
s 54
f 47/47/213 46/46/214 40/40/215
f 46/46/214 37/37/216 40/40/215
s 55
f 43/43/217 46/46/218 44/44/219
f 46/46/218 45/45/220 44/44/219
s 56
f 45/45/221 54/118/222 44/44/223
f 54/118/222 51/119/224 44/44/223
s 57
f 44/44/225 51/119/226 41/41/227
f 51/119/226 50/120/228 41/41/227
s 58
f 47/47/229 96/117/230 48/48/231
f 96/117/230 97/121/232 48/48/231
s 59
f 48/48/233 97/121/234 55/123/235
f 97/121/234 98/122/236 55/123/235
s 60
f 45/45/237 48/48/238 54/118/239
f 55/123/240 54/118/239 48/48/238
s 61
f 54/54/241 53/53/242 51/51/243
f 51/51/243 53/53/242 52/52/244
s 62
f 53/53/245 62/62/246 52/52/247
f 62/62/246 59/59/248 52/52/247
s 63
f 58/58/249 49/49/250 59/59/251
f 59/59/251 49/49/250 52/52/252
s 64
f 55/55/253 98/124/254 56/56/255
f 98/124/254 67/125/256 56/56/255
s 65
f 66/126/257 63/63/258 67/125/259
f 67/125/259 63/63/258 56/56/260
s 66
f 63/63/261 62/62/262 56/56/263
f 62/62/262 53/53/264 56/56/263
s 67
f 59/59/265 62/62/266 60/60/267
f 62/62/266 61/61/268 60/60/267
s 68
f 6/127/269 3/128/270 61/61/271
f 61/61/271 3/128/270 60/60/272
s 69
f 3/128/273 2/129/274 60/60/275
f 2/129/274 57/57/276 60/60/275
s 70
f 66/126/277 71/130/278 63/63/279
f 63/63/279 71/130/278 64/64/280
s 71
f 71/130/281 70/131/282 64/64/283
f 70/131/282 7/132/284 64/64/283
s 72
f 6/127/285 61/61/286 7/132/287
f 7/132/287 61/61/286 64/64/288
s 73
f 68/68/289 67/67/290 97/134/291
f 67/67/290 98/133/292 97/134/291
s 74
f 97/134/293 96/135/294 68/68/295
f 96/135/294 75/75/296 68/68/295
s 75
f 75/75/297 74/74/298 68/68/299
f 74/74/298 65/65/300 68/68/299
s 76
f 65/65/301 72/72/302 66/66/303
f 71/71/304 66/66/303 72/72/302
s 77
f 65/65/305 74/74/306 72/72/307
f 74/74/306 79/79/308 72/72/307
s 78
f 79/79/309 78/78/310 72/72/311
f 78/78/310 69/69/312 72/72/311
s 79
f 75/75/313 96/135/314 76/76/315
f 96/135/314 95/136/316 76/76/315
s 80
f 76/76/317 95/136/318 93/138/319
f 95/136/318 94/137/320 93/138/319
s 81
f 73/73/321 76/76/322 92/139/323
f 93/138/324 92/139/323 76/76/322
s 82
f 79/79/325 74/74/326 80/80/327
f 74/74/326 73/73/328 80/80/327
s 83
f 73/73/329 92/139/330 80/80/331
f 92/139/330 91/140/332 80/80/331
s 84
f 80/80/333 91/140/334 77/77/335
f 91/140/334 90/141/336 77/77/335
s 85
f 82/85/337 81/84/338 58/86/339
f 49/83/340 58/86/339 81/84/338
s 86
f 82/85/341 87/94/342 81/84/343
f 87/94/342 84/91/344 81/84/343
s 87
f 84/91/345 42/90/346 81/84/347
f 42/90/346 41/81/348 81/84/347
s 88
f 83/88/349 57/87/350 1/143/351
f 57/87/350 2/142/352 1/143/351
s 89
f 1/143/353 10/144/354 83/88/355
f 10/144/354 88/95/356 83/88/355
s 90
f 88/95/357 87/94/358 83/88/359
f 87/94/358 82/85/360 83/88/359
s 91
f 84/91/361 87/94/362 85/92/363
f 87/94/362 86/93/364 85/92/363
s 92
f 86/93/365 26/145/366 85/92/367
f 26/145/366 25/146/368 85/92/367
s 93
f 85/92/369 25/146/370 33/89/371
f 25/146/370 34/147/372 33/89/371
s 94
f 88/95/373 10/144/374 89/96/375
f 10/144/374 9/148/376 89/96/375
s 95
f 89/96/377 9/148/378 17/150/379
f 9/148/378 18/149/380 17/150/379
s 96
f 86/93/381 89/96/382 26/145/383
f 17/150/384 26/145/383 89/96/382
